<?xml version="1.0" ?><svg height="512" id="svg2" version="1.1" viewBox="0 0 511.99999 511.99999" width="512" xmlns="http://www.w3.org/2000/svg" xmlns:cc="http://creativecommons.org/ns#" xmlns:dc="http://purl.org/dc/elements/1.1/" xmlns:inkscape="http://www.inkscape.org/namespaces/inkscape" xmlns:rdf="http://www.w3.org/1999/02/22-rdf-syntax-ns#" xmlns:sodipodi="http://sodipodi.sourceforge.net/DTD/sodipodi-0.dtd" xmlns:svg="http://www.w3.org/2000/svg"><defs id="defs4"/><g id="layer1" transform="translate(0,-540.36218)"><g id="g4231" transform="translate(0,1535.9999)"><rect height="512" id="rect9737" ry="0" style="opacity:1;fill:none;fill-opacity:1;fill-rule:nonzero;stroke:none;stroke-width:8;stroke-linecap:round;stroke-linejoin:round;stroke-miterlimit:4;stroke-dasharray:none;stroke-opacity:1" width="512" x="-1.1444092e-005" y="-995.6377"/><g id="g10300"><path d="m 320.2181,-910.13739 -164.19336,0 c -9.695,0 -17.5,7.805 -17.5,17.5 l 0,322.99999 c 0,9.695 7.805,17.5 17.5,17.5 l 213,0 c 9.695,0 17.5,-7.805 17.5,-17.5 l 0,-274.1934" id="path9739" style="opacity:1;fill:#000000;fill-opacity:0.25098039;fill-rule:nonzero;stroke:none;stroke-width:4;stroke-linecap:round;stroke-linejoin:round;stroke-miterlimit:4;stroke-dasharray:none;stroke-opacity:1"/><path d="m 309.1685,-925.1375 -164.19336,0 c -9.695,0 -17.5,7.805 -17.5,17.5 l 0,322.99999 c 0,9.695 7.805,17.5 17.5,17.5 l 213,0 c 9.695,0 17.5,-7.805 17.5,-17.5 l 0,-274.1934" id="path9741" style="opacity:1;fill:#2a7fff;fill-opacity:1;fill-rule:nonzero;stroke:#2a7fff;stroke-width:4;stroke-linecap:round;stroke-linejoin:round;stroke-miterlimit:4;stroke-dasharray:none;stroke-opacity:1"/><path d="m 375.47578,-858.83169 -66.30664,-66.30659 0,48.8066 c 0,9.69499 7.805,17.49999 17.5,17.49999 l 48.80664,0 z" id="path9743" style="opacity:1;fill:#ffffff;fill-opacity:1;fill-rule:nonzero;stroke:#ffffff;stroke-width:4;stroke-linecap:round;stroke-linejoin:round;stroke-miterlimit:4;stroke-dasharray:none;stroke-opacity:1"/><path d="m 166.4746,-842.52571 15.7832,67.4004 16.72657,0 10.23242,-43.9062 10.50781,43.9062 16.72656,0 15.78125,-67.4004 -15.38867,0 -9.44531,46.3965 -10.27149,-46.3965 -15.07422,0 -10.7832,46.3965 -9.01172,-46.3965 -15.7832,0 z m 96.74609,33.1875 a 8.0008,8.0008 0 1 0 0,16 l 65.14063,0 a 8.0008,8.0008 0 1 0 0,-16 l -65.14063,0 z m -88.63086,47.8613 a 8.0008,8.0008 0 1 0 0,16 l 153.77149,0 a 8.0008,8.0008 0 1 0 0,-16 l -153.77149,0 z m 0,47.8633 a 8.0008,8.0008 0 1 0 0,16 l 153.77149,0 a 8.0008,8.0008 0 1 0 0,-16 l -153.77149,0 z m 0,47.8633 a 8.0008,8.0008 0 1 0 0,16 l 153.77149,0 a 8.0008,8.0008 0 1 0 0,-16 l -153.77149,0 z" id="path9757" style="color:#000000;font-style:normal;font-variant:normal;font-weight:normal;font-stretch:normal;font-size:medium;line-height:normal;font-family:sans-serif;text-indent:0;text-align:start;text-decoration:none;text-decoration-line:none;text-decoration-style:solid;text-decoration-color:#000000;letter-spacing:normal;word-spacing:normal;text-transform:none;direction:ltr;block-progression:tb;writing-mode:lr-tb;baseline-shift:baseline;text-anchor:start;white-space:normal;clip-rule:nonzero;display:inline;overflow:visible;visibility:visible;opacity:1;isolation:auto;mix-blend-mode:normal;color-interpolation:sRGB;color-interpolation-filters:linearRGB;solid-color:#000000;solid-opacity:1;fill:#ffffff;fill-opacity:1;fill-rule:evenodd;stroke:none;stroke-width:16;stroke-linecap:round;stroke-linejoin:round;stroke-miterlimit:4;stroke-dasharray:none;stroke-dashoffset:0;stroke-opacity:1;color-rendering:auto;image-rendering:auto;shape-rendering:auto;text-rendering:auto;enable-background:accumulate"/></g></g></g></svg>