<?xml version="1.0" ?><svg height="512" id="svg2" version="1.1" viewBox="0 0 511.99999 511.99999" width="512" xmlns="http://www.w3.org/2000/svg" xmlns:cc="http://creativecommons.org/ns#" xmlns:dc="http://purl.org/dc/elements/1.1/" xmlns:inkscape="http://www.inkscape.org/namespaces/inkscape" xmlns:rdf="http://www.w3.org/1999/02/22-rdf-syntax-ns#" xmlns:sodipodi="http://sodipodi.sourceforge.net/DTD/sodipodi-0.dtd" xmlns:svg="http://www.w3.org/2000/svg"><defs id="defs4"/><g id="layer1" transform="translate(0,-540.36218)"><g id="g10151" transform="translate(-1536,1024)"><rect height="512" id="rect9795" ry="0" style="opacity:1;fill:none;fill-opacity:1;fill-rule:nonzero;stroke:none;stroke-width:8;stroke-linecap:round;stroke-linejoin:round;stroke-miterlimit:4;stroke-dasharray:none;stroke-opacity:1" width="512" x="1536" y="-483.63782"/><g id="g10069"><g id="g9797" transform="translate(25.394924,-991.24263)"><path d="m 1856.2181,625.86261 -164.1933,0 c -9.695,0 -17.5,7.805 -17.5,17.5 l 0,323 c 0,9.695 7.805,17.5 17.5,17.5 l 213,0 c 9.695,0 17.5,-7.805 17.5,-17.5 l 0,-274.1934" id="path9799" style="opacity:1;fill:#000000;fill-opacity:0.25098039;fill-rule:nonzero;stroke:none;stroke-width:4;stroke-linecap:round;stroke-linejoin:round;stroke-miterlimit:4;stroke-dasharray:none;stroke-opacity:1"/><path d="m 1845.1685,610.8625 -164.1933,0 c -9.695,0 -17.5,7.805 -17.5,17.5 l 0,323 c 0,9.695 7.805,17.5 17.5,17.5 l 213,0 c 9.695,0 17.5,-7.805 17.5,-17.5 l 0,-274.1934" id="path9801" style="opacity:1;fill:#ffffff;fill-opacity:1;fill-rule:nonzero;stroke:#2a7fff;stroke-width:4;stroke-linecap:round;stroke-linejoin:round;stroke-miterlimit:4;stroke-dasharray:none;stroke-opacity:1"/></g><path d="m 1936.8701,-314.07353 -66.3066,-66.3066 0,48.8066 c 0,9.695 7.805,17.5 17.5,17.5 l 48.8066,0 z" id="path9803" style="opacity:1;fill:#2a7fff;fill-opacity:1;fill-rule:nonzero;stroke:#2a7fff;stroke-width:4;stroke-linecap:round;stroke-linejoin:round;stroke-miterlimit:4;stroke-dasharray:none;stroke-opacity:1"/><g id="g9805" transform="translate(8.3923281e-5,-1024.0001)"><path d="m 1856.2181,625.86261 -164.1933,0 c -9.695,0 -17.5,7.805 -17.5,17.5 l 0,323 c 0,9.695 7.805,17.5 17.5,17.5 l 213,0 c 9.695,0 17.5,-7.805 17.5,-17.5 l 0,-274.1934" id="path9807" style="opacity:1;fill:#000000;fill-opacity:0.25098039;fill-rule:nonzero;stroke:none;stroke-width:4;stroke-linecap:round;stroke-linejoin:round;stroke-miterlimit:4;stroke-dasharray:none;stroke-opacity:1"/><path d="m 1845.1685,610.8625 -164.1933,0 c -9.695,0 -17.5,7.805 -17.5,17.5 l 0,323 c 0,9.695 7.805,17.5 17.5,17.5 l 213,0 c 9.695,0 17.5,-7.805 17.5,-17.5 l 0,-274.1934" id="path9809" style="opacity:1;fill:#ffffff;fill-opacity:1;fill-rule:nonzero;stroke:#2a7fff;stroke-width:4;stroke-linecap:round;stroke-linejoin:round;stroke-miterlimit:4;stroke-dasharray:none;stroke-opacity:1"/></g><path d="m 1911.4759,-346.83178 -66.3066,-66.3066 0,48.8066 c 0,9.695 7.805,17.5 17.5,17.5 l 48.8066,0 z" id="path9811" style="opacity:1;fill:#2a7fff;fill-opacity:1;fill-rule:nonzero;stroke:#2a7fff;stroke-width:4;stroke-linecap:round;stroke-linejoin:round;stroke-miterlimit:4;stroke-dasharray:none;stroke-opacity:1"/><path d="m 1707.0001,-330.5258 15.7812,67.4004 16.7266,0 10.2324,-43.9062 10.5078,43.9062 16.7266,0 15.7832,-67.4004 -15.3887,0 -9.4453,46.3965 -10.2715,-46.3965 -15.0742,0 -10.7832,46.3965 -9.0137,-46.3965 -15.7812,0 z m 96.7461,33.1875 a 8.0008,8.0008 0 1 0 0,16 l 65.1406,0 a 8.0008,8.0008 0 1 0 0,-16 l -65.1406,0 z m -88.6309,47.8613 a 8.0008,8.0008 0 1 0 0,16 l 153.7715,0 a 8.0008,8.0008 0 1 0 0,-16 l -153.7715,0 z m 0,47.8633 a 8.0008,8.0008 0 1 0 0,16 l 153.7715,0 a 8.0008,8.0008 0 1 0 0,-16 l -153.7715,0 z m 0,47.8633 a 8.0008,8.0008 0 1 0 0,16 l 153.7715,0 a 8.0008,8.0008 0 1 0 0,-16 l -153.7715,0 z" id="path9841" style="color:#000000;font-style:normal;font-variant:normal;font-weight:normal;font-stretch:normal;font-size:medium;line-height:normal;font-family:sans-serif;text-indent:0;text-align:start;text-decoration:none;text-decoration-line:none;text-decoration-style:solid;text-decoration-color:#000000;letter-spacing:normal;word-spacing:normal;text-transform:none;direction:ltr;block-progression:tb;writing-mode:lr-tb;baseline-shift:baseline;text-anchor:start;white-space:normal;clip-rule:nonzero;display:inline;overflow:visible;visibility:visible;opacity:1;isolation:auto;mix-blend-mode:normal;color-interpolation:sRGB;color-interpolation-filters:linearRGB;solid-color:#000000;solid-opacity:1;fill:#2a7fff;fill-opacity:1;fill-rule:evenodd;stroke:none;stroke-width:16;stroke-linecap:round;stroke-linejoin:round;stroke-miterlimit:4;stroke-dasharray:none;stroke-dashoffset:0;stroke-opacity:1;color-rendering:auto;image-rendering:auto;shape-rendering:auto;text-rendering:auto;enable-background:accumulate"/></g></g></g></svg>