<?xml version="1.0" ?><svg fill="none" height="24" viewBox="0 0 24 24" width="24" xmlns="http://www.w3.org/2000/svg"><path clip-rule="evenodd" d="M8 4H5C2.79086 4 1 5.79086 1 8V16C1 18.2091 2.79086 20 5 20H8V4ZM4.5 10C5.32843 10 6 9.32843 6 8.5C6 7.67157 5.32843 7 4.5 7C3.67157 7 3 7.67157 3 8.5C3 9.32843 3.67157 10 4.5 10Z" fill="#4F4F4F" fill-rule="evenodd"/><path d="M10 20H14V4H10V20Z" fill="#4F4F4F"/><path clip-rule="evenodd" d="M16 4V20H19C21.2091 20 23 18.2091 23 16V8C23 5.79086 21.2091 4 19 4H16ZM19.5 17C20.3284 17 21 16.3284 21 15.5C21 14.6716 20.3284 14 19.5 14C18.6716 14 18 14.6716 18 15.5C18 16.3284 18.6716 17 19.5 17Z" fill="#4F4F4F" fill-rule="evenodd"/></svg>