<?xml version="1.0" encoding="UTF-8" standalone="no"?>
<svg
   xmlns:dc="http://purl.org/dc/elements/1.1/"
   xmlns:cc="http://creativecommons.org/ns#"
   xmlns:rdf="http://www.w3.org/1999/02/22-rdf-syntax-ns#"
   xmlns:svg="http://www.w3.org/2000/svg"
   xmlns="http://www.w3.org/2000/svg"
   xmlns:sodipodi="http://sodipodi.sourceforge.net/DTD/sodipodi-0.dtd"
   xmlns:inkscape="http://www.inkscape.org/namespaces/inkscape"
   enable-background="new 0 0 500 500"
   height="500px"
   id="Layer_1"
   version="1.1"
   viewBox="0 0 500 500"
   width="500px"
   xml:space="preserve"
   sodipodi:docname="dashboard-white.svg"
   inkscape:version="1.0.1 (3bc2e813f5, 2020-09-07)"><metadata
     id="metadata47"><rdf:RDF><cc:Work
         rdf:about=""><dc:format>image/svg+xml</dc:format><dc:type
           rdf:resource="http://purl.org/dc/dcmitype/StillImage" /><dc:title></dc:title></cc:Work></rdf:RDF></metadata><defs
     id="defs45" /><sodipodi:namedview
     pagecolor="#ffffff"
     bordercolor="#666666"
     borderopacity="1"
     objecttolerance="10"
     gridtolerance="10"
     guidetolerance="10"
     inkscape:pageopacity="0"
     inkscape:pageshadow="2"
     inkscape:window-width="1600"
     inkscape:window-height="837"
     id="namedview43"
     showgrid="false"
     inkscape:zoom="1.34"
     inkscape:cx="233.58209"
     inkscape:cy="250"
     inkscape:window-x="-8"
     inkscape:window-y="-8"
     inkscape:window-maximized="1"
     inkscape:current-layer="Layer_1" /><path
     clip-rule="evenodd"
     d="M 105.132,391.843 V 155.512 H 45.434 v 226.702 c 0,5.291 4.338,9.64 9.639,9.64 z"
     fill="none"
     fill-rule="evenodd"
     stroke="#130b7a"
     stroke-linecap="round"
     stroke-linejoin="round"
     stroke-miterlimit="2.6131"
     stroke-width="10"
     id="path2"
     style="fill:#916f6f" /><path
     clip-rule="evenodd"
     d="m 104.777,155.512 v 236.331 c 113.792,-0.03 233.068,-0.142 346.779,-0.142 1.033,0 1.977,-0.416 2.665,-1.085 l 0.031,-0.03 c 0.669,-0.689 1.084,-1.632 1.084,-2.676 0,-77.658 -0.365,-154.709 -0.365,-232.398 z"
     fill="none"
     fill-rule="evenodd"
     stroke="#130b7a"
     stroke-linecap="round"
     stroke-linejoin="round"
     stroke-miterlimit="2.6131"
     stroke-width="10"
     id="path4"
     style="fill:#916f6f" /><path
     clip-rule="evenodd"
     d="m 50.724,88.859 h 398.552 c 14.148,0 25.724,11.575 25.724,25.734 v 132.513 27.012 115.079 c 0,6.021 -2.463,11.494 -6.437,15.467 l -0.04,0.041 c -3.974,3.973 -9.446,6.436 -15.467,6.436 H 388.533 369.803 50.724 C 36.585,411.141 25,399.566 25,385.417 V 114.594 C 25,100.435 36.575,88.859 50.724,88.859 Z"
     fill="none"
     fill-rule="evenodd"
     stroke="#130b7a"
     stroke-linecap="round"
     stroke-linejoin="round"
     stroke-miterlimit="2.6131"
     stroke-width="10"
     id="path6"
     style="fill:none" /><path
     clip-rule="evenodd"
     d="m 145.31,193.956 h 93.207 c 2.24,0 4.084,1.834 4.084,4.074 v 63.834 c 0,2.25 -1.845,4.085 -4.084,4.085 H 145.31 c -2.24,0 -4.084,-1.835 -4.084,-4.085 V 198.03 c -0.001,-2.24 1.843,-4.074 4.084,-4.074 z"
     fill="none"
     fill-rule="evenodd"
     stroke="#130b7a"
     stroke-linecap="round"
     stroke-linejoin="round"
     stroke-miterlimit="2.6131"
     stroke-width="10"
     id="path8"
     style="fill:#916f6f" /><g
     id="g20"><path
       clip-rule="evenodd"
       d="m 75.283,204.608 c 6.091,0 11.068,-4.967 11.068,-11.068 0,-6.092 -4.977,-11.068 -11.068,-11.068 -6.102,0 -11.068,4.977 -11.068,11.068 0,6.102 4.966,11.068 11.068,11.068 z"
       fill="#130b7a"
       fill-rule="evenodd"
       id="path10" /><path
       clip-rule="evenodd"
       d="m 75.283,244.685 c 6.091,0 11.068,-4.977 11.068,-11.068 0,-6.102 -4.977,-11.068 -11.068,-11.068 -6.102,0 -11.068,4.967 -11.068,11.068 0,6.091 4.966,11.068 11.068,11.068 z"
       fill="#130b7a"
       fill-rule="evenodd"
       id="path12" /><path
       clip-rule="evenodd"
       d="m 75.283,284.74 c 6.091,0 11.068,-4.967 11.068,-11.068 0,-6.091 -4.977,-11.058 -11.068,-11.058 -6.102,0 -11.068,4.967 -11.068,11.058 0,6.101 4.966,11.068 11.068,11.068 z"
       fill="#130b7a"
       fill-rule="evenodd"
       id="path14" /><path
       clip-rule="evenodd"
       d="m 75.283,324.816 c 6.091,0 11.068,-4.977 11.068,-11.068 0,-6.102 -4.977,-11.068 -11.068,-11.068 -6.102,0 -11.068,4.967 -11.068,11.068 0,6.092 4.966,11.068 11.068,11.068 z"
       fill="#130b7a"
       fill-rule="evenodd"
       id="path16" /><path
       clip-rule="evenodd"
       d="m 75.283,364.872 c 6.091,0 11.068,-4.967 11.068,-11.068 0,-6.091 -4.977,-11.058 -11.068,-11.058 -6.102,0 -11.068,4.967 -11.068,11.058 0,6.101 4.966,11.068 11.068,11.068 z"
       fill="#130b7a"
       fill-rule="evenodd"
       id="path18" /></g><path
     clip-rule="evenodd"
     d="m 172.078,363.575 c 16.998,0 30.863,-13.866 30.863,-30.854 0,-16.997 -13.865,-30.853 -30.863,-30.853 -16.987,0 -30.853,13.855 -30.853,30.853 0,16.988 13.865,30.854 30.853,30.854 z"
     fill="none"
     fill-rule="evenodd"
     stroke="#130b7a"
     stroke-linecap="round"
     stroke-linejoin="round"
     stroke-miterlimit="2.6131"
     stroke-width="10"
     id="path22"
     style="fill:#6c5353" /><path
     clip-rule="evenodd"
     d="m 284.755,363.575 c 16.997,0 30.853,-13.866 30.853,-30.854 0,-16.997 -13.855,-30.853 -30.853,-30.853 -16.987,0 -30.853,13.855 -30.853,30.853 0,16.988 13.866,30.854 30.853,30.854 z"
     fill="none"
     fill-rule="evenodd"
     stroke="#130b7a"
     stroke-linecap="round"
     stroke-linejoin="round"
     stroke-miterlimit="2.6131"
     stroke-width="10"
     id="path24"
     style="fill:#6c5353" /><path
     clip-rule="evenodd"
     d="m 397.433,363.575 c 16.997,0 30.862,-13.866 30.862,-30.854 0,-16.997 -13.865,-30.853 -30.862,-30.853 -16.987,0 -30.853,13.855 -30.853,30.853 0,16.988 13.865,30.854 30.853,30.854 z"
     fill="none"
     fill-rule="evenodd"
     stroke="#130b7a"
     stroke-linecap="round"
     stroke-linejoin="round"
     stroke-miterlimit="2.6131"
     stroke-width="10"
     id="path26"
     style="fill:#916f6f" /><path
     clip-rule="evenodd"
     d="m 353.799,110.793 c 6.03,0 10.926,4.886 10.926,10.916 0,6.03 -4.896,10.916 -10.926,10.916 -6.021,0 -10.916,-4.886 -10.916,-10.916 0,-6.03 4.895,-10.916 10.916,-10.916 z"
     fill="#130b7a"
     fill-rule="evenodd"
     id="path28" /><path
     clip-rule="evenodd"
     d="m 395.709,110.793 c 6.031,0 10.916,4.886 10.916,10.916 0,6.03 -4.885,10.916 -10.916,10.916 -6.03,0 -10.926,-4.886 -10.926,-10.916 0,-6.03 4.896,-10.916 10.926,-10.916 z"
     fill="#130b7a"
     fill-rule="evenodd"
     id="path30" /><circle
     clip-rule="evenodd"
     cx="437.60901"
     cy="121.709"
     fill="#130b7a"
     fill-rule="evenodd"
     r="10.916"
     id="circle32" /><line
     clip-rule="evenodd"
     fill="none"
     fill-rule="evenodd"
     stroke="#130b7a"
     stroke-linecap="round"
     stroke-linejoin="round"
     stroke-miterlimit="2.6131"
     stroke-width="10"
     x1="267.59601"
     x2="428.29501"
     y1="193.95599"
     y2="193.95599"
     id="line34" /><line
     clip-rule="evenodd"
     fill="none"
     fill-rule="evenodd"
     stroke="#130b7a"
     stroke-linecap="round"
     stroke-linejoin="round"
     stroke-miterlimit="2.6131"
     stroke-width="10"
     x1="267.59601"
     x2="428.29501"
     y1="229.94701"
     y2="229.94701"
     id="line36" /><line
     clip-rule="evenodd"
     fill="none"
     fill-rule="evenodd"
     stroke="#130b7a"
     stroke-linecap="round"
     stroke-linejoin="round"
     stroke-miterlimit="2.6131"
     stroke-width="10"
     x1="267.59601"
     x2="428.29501"
     y1="265.93799"
     y2="265.93799"
     id="line38" /></svg>
