<?xml version="1.0" ?><svg id="Icons" style="enable-background:new 0 0 32 32;" version="1.1" viewBox="0 0 32 32" xml:space="preserve" xmlns="http://www.w3.org/2000/svg" xmlns:xlink="http://www.w3.org/1999/xlink"><style type="text/css">
	.st0{fill:none;stroke:#000000;stroke-width:2;stroke-linecap:round;stroke-linejoin:round;stroke-miterlimit:10;}
</style><g><path d="M27,4h-3.3l-0.9-1.5C22.7,2.2,22.4,2,22,2h-3c-1.7,0-3,1.3-3,3c-5.2,0-9.5,3.6-10.7,8.4l-1.5-2c-0.3-0.4-1-0.5-1.4-0.2   c-0.4,0.3-0.5,1-0.2,1.4l3,4C5.4,16.9,5.7,17,6,17c0.1,0,0.2,0,0.3-0.1C6.7,16.8,7,16.4,7,16c0-5,4-9,9-9v4c0,1.7,1.3,3,3,3h8   c1.7,0,3-1.3,3-3V7C30,5.3,28.7,4,27,4z"/><path d="M26.8,15.4c-0.3-0.3-0.7-0.5-1.1-0.3C25.3,15.2,25,15.6,25,16c0,5-4,9-9,9v-2c0-1.7-1.3-3-3-3H9.7l-0.9-1.5   C8.7,18.2,8.4,18,8,18H5c-1.7,0-3,1.3-3,3v6c0,1.7,1.3,3,3,3h8c1.7,0,3-1.3,3-3c5.2,0,9.5-3.6,10.7-8.4l1.5,2   c0.3,0.4,1,0.5,1.4,0.2c0.4-0.3,0.5-1,0.2-1.4L26.8,15.4z"/></g></svg>