<?xml version="1.0" ?><svg id="Icons" style="enable-background:new 0 0 32 32;" version="1.1" viewBox="0 0 32 32" xml:space="preserve" xmlns="http://www.w3.org/2000/svg" xmlns:xlink="http://www.w3.org/1999/xlink"><style type="text/css">
	.st0{fill:none;stroke:#000000;stroke-width:2;stroke-linecap:round;stroke-linejoin:round;stroke-miterlimit:10;}
	.st1{fill:none;stroke:#000000;stroke-width:2;stroke-linejoin:round;stroke-miterlimit:10;}
</style><path class="st0" d="M23.1,5L22,3h-3c-1.1,0-2,0.9-2,2v0v3v3c0,1.1,0.9,2,2,2h8c1.1,0,2-0.9,2-2V7c0-1.1-0.9-2-2-2H23.1z"/><path class="st0" d="M9.1,21L8,19H5c-1.1,0-2,0.9-2,2v0v3v3c0,1.1,0.9,2,2,2h8c1.1,0,2-0.9,2-2v-4c0-1.1-0.9-2-2-2H9.1z"/><path class="st0" d="M16,26c5.5,0,10-4.5,10-10l3,4"/><path class="st0" d="M16,6C10.5,6,6,10.5,6,16l-3-4"/></svg>