<?xml version="1.0" standalone="no"?>
<!DOCTYPE svg PUBLIC "-//W3C//DTD SVG 20010904//EN"
 "http://www.w3.org/TR/2001/REC-SVG-20010904/DTD/svg10.dtd">
<svg version="1.0" xmlns="http://www.w3.org/2000/svg"
 width="512.000000pt" height="512.000000pt" viewBox="0 0 512.000000 512.000000"
 preserveAspectRatio="xMidYMid meet">

<g transform="translate(0.000000,512.000000) scale(0.100000,-0.100000)"
fill="#000000" stroke="none">
<path d="M2765 5070 c-19 -18 -37 -20 -230 -24 -276 -5 -461 -32 -695 -103
-868 -262 -1527 -978 -1714 -1863 -41 -193 -51 -294 -51 -520 0 -218 9 -309
46 -500 93 -467 334 -915 679 -1260 106 -106 268 -242 282 -238 5 2 25 38 45
81 31 66 35 80 22 89 -11 8 -10 9 4 4 14 -4 22 3 34 32 8 20 20 43 26 51 6 7
12 20 13 28 2 8 10 23 18 32 9 10 16 21 16 24 0 13 64 142 79 160 8 9 11 20 7
25 -4 4 -62 9 -129 12 -67 3 -126 8 -132 12 -6 3 -10 69 -10 164 1 159 1 159
25 171 15 7 64 13 118 13 l93 0 -23 30 c-13 18 -31 30 -45 30 -13 0 -23 5 -23
11 0 6 -9 8 -20 4 -11 -4 -20 -2 -20 4 0 6 -7 7 -17 4 -12 -5 -14 -3 -8 8 7
12 6 12 -9 0 -20 -17 -103 -16 -123 1 -7 6 -20 7 -29 4 -11 -4 -15 -2 -11 8 8
21 -2 26 -31 15 -21 -8 -29 -7 -39 7 -8 11 -20 15 -37 10 -15 -3 -26 -3 -27 1
0 5 -2 23 -3 41 -3 23 1 32 11 32 11 0 10 5 -4 25 -24 33 -37 31 -30 -5 7 -34
-2 -39 -20 -10 -14 21 -9 45 15 73 14 16 14 17 -9 15 -18 -2 -25 2 -27 18 -3
24 16 35 47 27 17 -4 21 -13 21 -45 0 -28 7 -49 24 -69 24 -28 24 -28 31 -6
13 40 10 62 -8 61 -19 -2 -33 36 -23 62 5 13 4 14 -7 6 -21 -18 -56 10 -39 31
17 21 4 49 -22 45 -17 -2 -21 -9 -19 -38 1 -34 1 -35 -12 -11 -14 27 -11 47
10 55 8 2 17 26 21 51 5 38 3 49 -12 61 -18 14 -18 15 2 9 16 -4 27 2 42 22
11 15 23 25 26 22 4 -3 -3 -17 -13 -31 -25 -31 -38 -78 -22 -78 6 0 13 6 15
12 13 43 16 47 31 42 14 -6 14 -9 0 -30 -18 -28 -19 -56 -3 -72 9 -9 9 -15 0
-24 -17 -17 -15 -24 9 -25 12 -1 19 1 15 4 -3 3 -1 12 4 18 7 8 4 18 -10 30
-21 19 -26 50 -10 60 6 4 9 -3 7 -16 -3 -31 19 -35 25 -5 3 14 0 27 -6 29 -6
2 0 14 14 26 l25 21 -27 -6 c-17 -4 -28 -2 -28 4 0 17 40 25 55 12 12 -10 15
-10 15 0 0 10 3 10 15 0 14 -12 13 -16 -6 -36 -21 -23 -19 -44 5 -44 17 0 46
33 46 52 0 8 -16 29 -36 47 -19 18 -32 36 -29 39 4 4 19 -7 34 -25 l27 -32 -1
39 c0 22 -3 41 -7 41 -5 1 -12 2 -18 3 -25 3 -12 21 18 24 42 4 42 22 -1 19
-17 -1 -38 -10 -45 -19 -18 -24 -38 -22 -45 4 -5 17 -9 19 -21 9 -8 -7 -20
-11 -28 -9 -19 4 -21 -3 -9 -35 6 -15 18 -27 26 -27 10 0 13 -5 9 -11 -4 -8
-19 1 -41 25 -40 43 -85 48 -127 15 -14 -11 -26 -16 -26 -10 0 20 45 41 87 41
48 0 56 17 25 48 -12 12 -16 25 -12 38 6 16 10 13 26 -21 18 -37 23 -40 58
-40 23 0 41 -5 43 -12 3 -7 11 -13 18 -13 7 0 15 6 18 13 7 22 -5 47 -24 47
-21 0 -40 36 -31 59 4 10 1 12 -7 6 -8 -5 -11 -18 -7 -37 7 -34 -10 -29 -24 8
-9 22 -25 29 -59 24 -9 -1 -12 4 -7 15 3 9 6 24 6 32 0 11 7 7 21 -11 20 -25
49 -35 49 -17 0 5 10 12 23 16 21 7 21 7 2 12 -47 10 -51 14 -32 24 9 6 17 22
18 37 1 23 2 24 7 7 10 -30 25 -49 47 -61 11 -6 25 -21 31 -33 21 -41 30 -44
52 -16 12 15 25 24 30 21 5 -3 18 1 28 9 15 11 17 16 7 26 -10 10 -13 10 -13
1 0 -7 -12 -12 -27 -11 -16 1 -37 -2 -48 -6 -16 -7 -18 -6 -7 6 15 16 16 30 1
27 -6 -2 -13 5 -14 15 -2 9 3 17 10 17 14 0 27 38 19 52 -3 5 -11 4 -18 -1
-14 -12 -57 -11 -50 1 3 4 1 8 -5 8 -5 0 -13 -4 -16 -10 -8 -13 -25 -13 -25 0
0 5 11 12 25 16 15 4 25 13 25 24 0 27 36 53 63 46 14 -3 27 -13 31 -21 5 -13
2 -13 -20 1 -23 16 -26 15 -44 -1 -11 -10 -19 -29 -19 -44 2 -23 2 -23 6 -4 5
27 28 47 43 38 8 -5 7 -11 -1 -21 -7 -9 -8 -14 -3 -13 26 5 35 -2 29 -21 -3
-11 -4 -20 -2 -20 7 0 37 96 37 119 0 29 34 27 58 -4 11 -13 23 -21 27 -17 4
4 5 -6 1 -22 -6 -26 -5 -28 8 -17 12 10 23 10 46 3 24 -9 30 -8 30 4 0 7 8 14
18 15 10 0 12 3 5 6 -18 7 -16 33 1 33 8 0 16 -10 18 -23 2 -15 9 -21 22 -19
31 6 12 -22 -20 -29 -16 -4 -21 -7 -11 -8 9 0 17 -9 17 -18 1 -14 5 -12 21 9
l20 26 31 -28 c22 -20 29 -34 25 -49 -3 -12 -1 -24 4 -27 15 -9 10 -34 -6 -28
-17 7 -21 -11 -5 -21 6 -4 8 -11 5 -16 -9 -13 2 -11 34 5 15 8 36 13 47 11 10
-2 27 -4 36 -4 12 -1 15 -6 11 -17 -5 -13 -2 -15 15 -9 17 5 22 2 22 -12 1
-17 1 -17 11 -1 7 12 6 24 -2 39 -9 17 -8 20 3 17 7 -3 14 -16 15 -29 0 -13 1
-28 2 -34 1 -5 8 1 17 13 15 22 54 31 54 12 0 -5 7 -10 15 -10 10 0 15 -11 15
-35 0 -28 5 -37 28 -49 16 -8 34 -22 41 -30 7 -9 28 -18 47 -22 38 -7 64 11
64 45 0 11 4 22 8 25 5 3 6 -8 4 -25 -2 -16 1 -36 8 -44 9 -10 9 -15 1 -15 -6
0 -11 5 -11 10 0 6 -5 10 -11 10 -7 0 -9 -9 -6 -21 4 -17 3 -19 -6 -10 -6 6
-28 11 -49 11 -21 0 -38 5 -38 10 0 14 -11 12 -33 -4 -11 -8 -20 -30 -21 -50
-3 -36 -16 -63 -16 -35 -1 10 -5 9 -15 -5 -13 -17 -15 -18 -21 -2 -3 9 -1 23
6 31 7 9 10 18 6 22 -3 3 -7 4 -9 2 -1 -2 -12 -18 -25 -36 -28 -41 -28 -55 1
-48 12 2 34 8 50 11 27 6 27 6 12 -22 -8 -16 -15 -36 -15 -45 0 -8 -3 -19 -7
-25 -5 -5 0 -1 10 9 17 19 17 19 17 -1 0 -12 -4 -24 -10 -27 -5 -3 -10 -11
-10 -18 0 -6 7 -1 16 11 10 14 13 33 9 51 -4 19 -1 32 10 41 8 7 15 8 15 3 0
-11 50 -5 51 6 0 3 3 29 6 56 8 83 16 66 10 -22 -4 -46 -13 -96 -21 -112 -8
-15 -13 -31 -10 -34 10 -9 -16 -47 -32 -47 -12 0 -13 -4 -4 -21 17 -32 -2
-275 -21 -263 -5 3 -9 0 -9 -6 0 -7 -6 -10 -14 -7 -8 3 -16 -2 -19 -12 -5 -19
-6 -19 -87 -7 -14 2 -33 0 -42 -5 -10 -5 -19 -5 -22 0 -6 10 -72 8 -82 -2 -4
-3 -14 -2 -24 3 -20 11 -30 4 -30 -20 0 -10 -7 -24 -17 -31 -14 -12 10 -15
165 -19 99 -3 184 -8 187 -12 4 -4 7 -55 6 -114 l-2 -106 -125 -250 c-69 -138
-124 -257 -122 -267 2 -9 14 -17 26 -19 21 -3 22 -2 11 17 -7 11 -17 17 -23
14 -5 -3 -6 -1 -2 5 11 18 20 14 31 -10 9 -21 18 -23 97 -26 60 -2 90 -7 98
-17 8 -10 12 -58 11 -152 -2 -187 -1 -186 -147 -193 -122 -6 -124 1 16 -63
161 -73 432 -147 660 -178 122 -17 496 -18 615 -1 138 19 290 51 398 83 107
32 288 99 346 128 24 12 69 20 136 24 115 7 119 8 161 30 26 14 54 42 104 104
6 7 10 27 10 45 0 26 8 40 38 65 20 17 71 59 112 94 415 346 724 868 829 1399
34 172 41 246 48 445 3 105 10 195 15 201 12 17 19 56 12 76 -7 23 -34 24 -34
2 0 -14 -2 -15 -16 -3 -15 12 -16 11 -11 -11 4 -14 4 -19 1 -12 -7 16 -61 16
-68 0 -3 -7 -3 -2 0 12 9 36 33 60 62 60 25 0 25 0 18 67 -10 97 -51 283 -90
409 -56 180 -67 224 -55 224 5 0 9 -4 9 -10 0 -5 7 -10 15 -10 19 0 17 67 -2
74 -8 3 -13 11 -11 18 6 28 -39 24 -47 -3 -6 -17 -19 2 -71 100 -200 384 -474
690 -834 933 -58 39 -115 82 -128 95 -13 13 -27 21 -32 18 -5 -3 -46 13 -90
35 -92 46 -267 119 -350 145 -30 10 -71 32 -90 49 -19 18 -47 37 -62 44 -41
17 -190 43 -250 44 -29 0 -61 6 -72 14 -29 20 -78 17 -101 -6z m-117 -47 c57
-4 82 -10 82 -19 0 -10 -44 -13 -202 -13 -230 0 -393 -18 -618 -67 -16 -4 -22
-2 -15 4 27 26 311 79 490 91 158 11 171 12 263 4z m777 -174 c108 -41 305
-138 305 -150 0 -13 2 -14 -116 45 -60 29 -143 66 -184 81 -69 26 -119 55 -94
55 5 0 45 -14 89 -31z m-1670 -83 c55 -4 102 -12 106 -18 4 -6 11 -8 17 -5 5
4 18 -3 28 -14 10 -11 24 -17 31 -14 8 2 12 1 8 -4 -10 -18 19 -17 84 1 65 18
288 58 325 58 44 0 3 -11 -90 -25 -151 -22 -287 -56 -274 -69 15 -15 12 -26
-5 -20 -8 4 -15 1 -15 -6 0 -6 5 -8 10 -5 6 3 10 -1 10 -9 0 -8 4 -17 9 -20 5
-4 7 3 4 14 -4 14 0 20 10 20 21 0 39 -34 30 -56 -4 -10 0 -22 11 -29 16 -12
16 -14 0 -29 -12 -13 -13 -20 -4 -31 6 -8 9 -19 5 -25 -3 -5 -1 -10 4 -10 18
0 12 -17 -7 -22 -16 -5 -18 -13 -14 -64 4 -54 3 -57 -11 -39 -26 34 -30 10 -6
-37 12 -23 39 -58 59 -76 28 -24 38 -39 35 -57 -1 -14 1 -28 6 -31 10 -6 -10
-54 -23 -54 -4 0 -8 5 -8 10 0 6 -5 10 -12 10 -9 0 -9 -3 0 -12 16 -16 15 -28
-3 -28 -8 0 -15 5 -15 11 0 7 -6 17 -14 23 -21 16 -58 147 -45 162 6 8 5 16
-3 25 -8 8 -21 30 -31 49 -9 19 -17 32 -17 28 0 -18 33 -144 40 -153 12 -14
21 -167 10 -160 -15 9 -18 -9 -4 -23 11 -10 17 -9 33 7 18 18 19 18 24 1 3
-10 -1 -31 -9 -46 -19 -35 -18 -38 8 -20 15 11 26 12 40 5 17 -9 17 -11 1 -37
-9 -15 -28 -40 -40 -56 -13 -15 -29 -48 -35 -72 -7 -24 -16 -44 -21 -44 -4 0
-5 10 -2 23 5 17 4 19 -4 7 -28 -40 -1 -53 36 -18 13 12 23 17 23 11 0 -14
-39 -47 -92 -76 -48 -26 -64 -26 -30 -1 16 12 15 13 -5 14 -12 0 -28 7 -36 15
-13 13 -16 13 -21 -1 -3 -8 -10 -12 -16 -9 -6 3 -13 -1 -16 -9 -8 -21 -29 -20
-54 1 -21 18 -27 48 -11 58 5 3 30 6 56 7 32 2 44 6 41 15 -3 7 1 13 8 13 7 0
19 7 26 15 11 13 8 14 -21 9 -19 -4 -46 -13 -61 -20 -28 -14 -85 -18 -111 -8
-9 3 -13 13 -10 25 3 11 11 18 18 15 21 -8 25 19 4 32 -15 9 -17 9 -13 -2 8
-20 -29 -14 -51 8 -14 14 -20 15 -23 6 -3 -8 9 -26 26 -41 17 -15 28 -29 26
-32 -2 -2 11 -15 30 -27 19 -14 34 -32 34 -44 0 -12 4 -33 7 -48 6 -24 4 -28
-15 -28 -25 0 -88 63 -96 97 -7 28 -24 41 -24 19 0 -9 -5 -16 -10 -16 -6 0 -8
11 -4 25 3 14 2 25 -3 25 -5 0 -17 16 -26 35 -20 41 -21 49 -7 40 12 -7 12 -3
4 19 -3 9 -15 16 -26 16 -28 0 -50 26 -48 58 3 44 1 64 -7 59 -5 -3 -8 6 -8
19 0 13 3 24 6 24 4 0 5 28 2 63 -5 69 3 84 71 126 43 27 44 30 11 23 -14 -2
-25 -9 -25 -14 0 -5 -4 -7 -9 -4 -13 8 -42 -4 -35 -15 3 -5 -2 -6 -10 -3 -9 3
-16 1 -16 -5 0 -6 5 -11 12 -11 8 0 7 -6 -4 -16 -11 -12 -14 -27 -11 -55 7
-49 -11 -52 -27 -5 -6 18 -10 38 -9 42 6 37 -16 59 -70 68 -25 5 -51 76 -51
144 0 52 6 75 34 131 49 97 57 109 88 122 16 6 28 15 28 20 0 5 5 9 12 9 6 0
19 6 27 13 21 17 125 48 141 41 3 -1 50 -5 105 -8z m730 -106 c25 0 46 7 60
20 19 18 24 19 34 6 9 -11 10 -20 1 -36 -6 -12 -9 -26 -7 -33 3 -8 7 -6 11 4
19 44 96 -59 96 -128 0 -21 12 -42 38 -71 34 -36 45 -42 80 -42 23 0 42 -4 42
-10 0 -6 -104 -10 -291 -10 l-291 0 4 148 c2 86 9 155 16 167 6 11 12 16 12
10 0 -14 110 -6 110 8 0 6 10 1 23 -11 16 -15 36 -22 62 -22z m942 -56 c137
-58 310 -151 300 -161 -3 -2 -44 18 -92 46 -75 43 -143 75 -305 144 -19 9 -30
16 -23 16 7 1 61 -20 120 -45z m591 -89 c212 -158 437 -399 584 -625 76 -117
163 -278 154 -287 -8 -8 -5 -13 -65 102 -175 330 -458 647 -769 859 -40 27
-72 53 -72 58 0 14 50 -18 168 -107z m-608 -4 c41 -18 109 -51 150 -73 41 -23
91 -50 110 -60 l35 -17 -35 4 c-20 2 -47 9 -62 15 -20 10 -31 9 -56 -4 -24
-13 -63 -16 -182 -16 -82 0 -150 4 -150 8 0 4 16 23 35 42 40 39 65 87 65 127
0 15 4 23 8 17 4 -6 41 -26 82 -43z m-2100 -150 c0 -5 -17 -21 -37 -37 -21
-15 -42 -34 -46 -41 -4 -7 -14 -13 -21 -13 -8 0 -21 -11 -30 -25 -9 -14 -23
-25 -31 -25 -8 0 -15 -4 -15 -9 0 -5 -42 -51 -93 -102 -52 -52 -112 -116 -135
-144 -23 -27 -42 -44 -42 -37 0 7 11 23 25 36 14 13 25 27 25 31 0 17 184 206
280 286 102 87 120 98 120 80z m2637 -70 c103 -82 224 -201 208 -202 -6 0 -1
-4 10 -8 17 -7 16 -9 -12 -15 -49 -11 -40 -23 22 -31 89 -11 71 -20 -37 -18
-77 1 -104 5 -118 18 -10 9 -20 12 -21 7 -2 -6 -10 -4 -17 4 -11 12 -8 17 22
29 19 8 61 15 93 15 l58 1 -65 60 c-36 33 -107 94 -157 136 -86 70 -100 83
-89 83 3 0 49 -35 103 -79z m-1107 49 c0 -5 -3 -10 -7 -10 -5 0 -19 -16 -32
-35 l-24 -35 -231 0 c-254 0 -261 1 -272 58 l-6 32 286 0 c184 0 286 -4 286
-10z m520 4 c0 -3 -16 -12 -35 -20 -20 -8 -41 -26 -47 -39 -15 -32 -64 -34
-124 -3 -61 30 -65 48 -9 48 24 0 47 5 50 10 6 10 165 15 165 4z m490 -68 c0
-3 -4 -8 -10 -11 -5 -3 -10 -1 -10 4 0 6 5 11 10 11 6 0 10 -2 10 -4z m-740
-26 c0 -11 -4 -20 -9 -20 -14 0 -23 18 -16 30 10 17 25 11 25 -10z m-2340 -3
c0 -2 -15 -16 -32 -33 l-33 -29 29 33 c28 30 36 37 36 29z m2425 -6 c3 -5 1
-13 -5 -16 -15 -9 -43 3 -35 15 8 13 32 13 40 1z m-978 -33 c34 -38 53 -84 53
-132 0 -41 -2 -45 -32 -55 -37 -13 -55 -2 -43 26 4 10 9 24 11 32 1 7 8 19 15
25 9 8 10 6 6 -12 -4 -19 -3 -21 9 -11 21 18 17 57 -10 84 -15 15 -20 26 -13
28 7 3 -1 8 -16 12 -18 5 -33 3 -40 -4 -15 -15 -30 -14 -25 1 4 10 29 22 59
27 3 1 15 -9 26 -21z m563 -38 l0 -50 -214 0 c-233 0 -223 -3 -251 63 l-15 37
240 0 240 0 0 -50z m1140 38 c0 -7 19 -30 42 -50 l43 -37 -104 -1 -103 0 6 31
c3 17 6 40 6 50 0 16 8 19 55 19 37 0 55 -4 55 -12z m-2476 -60 c3 -18 9 -45
12 -60 5 -22 3 -28 -9 -28 -17 0 -37 29 -37 51 0 7 7 5 16 -7 15 -19 16 -19 9
1 -14 43 -17 75 -8 75 6 0 13 -15 17 -32z m-755 5 c-8 -10 -16 -20 -20 -23
-14 -13 -133 -184 -177 -256 -56 -90 -146 -268 -181 -357 -27 -67 -21 -82 38
-93 20 -4 51 -16 70 -26 18 -11 43 -18 55 -16 11 1 36 -4 53 -11 18 -7 41 -11
51 -9 11 3 23 -2 30 -13 10 -16 8 -17 -22 -12 -19 3 -42 0 -52 -6 -16 -8 -11
-10 28 -11 55 0 115 -26 124 -52 6 -19 24 -25 24 -8 0 12 -34 47 -66 68 -10 7
-14 10 -8 7 7 -2 14 2 18 10 3 8 10 15 17 15 6 0 8 -7 5 -16 -3 -8 -2 -12 4
-9 5 3 19 -8 31 -25 13 -16 31 -30 41 -30 10 0 18 -4 18 -10 0 -5 -7 -6 -17
-3 -9 4 -14 2 -11 -3 6 -11 -28 -45 -36 -36 -3 3 -6 -5 -6 -17 0 -12 4 -19 10
-16 6 3 10 -4 10 -18 0 -15 9 -28 25 -37 35 -19 31 -27 -10 -22 -32 4 -34 6
-28 33 6 32 -10 40 -26 12 -5 -10 -13 -15 -17 -11 -3 4 -14 3 -24 -2 -9 -5
-29 -6 -43 -2 -20 5 -24 11 -17 22 8 13 11 12 23 -4 8 -11 19 -16 25 -12 21
12 13 23 -20 30 -26 5 -37 2 -50 -14 -19 -24 -45 -26 -45 -5 0 10 6 13 19 9
27 -8 23 30 -4 43 -22 10 -22 10 4 15 15 3 26 2 23 -1 -2 -4 0 -13 6 -21 7
-12 9 -11 9 6 0 11 11 31 25 44 31 29 31 38 1 46 -31 7 -100 -28 -123 -64 -10
-15 -21 -30 -26 -33 -4 -3 -5 -13 -1 -22 5 -13 0 -17 -21 -17 -21 0 -25 3 -18
13 6 6 10 27 10 45 0 25 8 41 39 70 22 20 49 43 60 50 17 11 15 12 -18 7 -20
-3 -39 -1 -42 4 -3 5 -25 13 -49 17 -70 13 -102 27 -111 50 -4 10 -10 14 -16
8 -12 -12 -75 -222 -90 -302 -7 -34 -17 -65 -21 -68 -5 -3 -9 -3 -9 0 0 19 44
190 71 272 17 54 33 103 34 109 1 5 9 26 18 45 8 19 33 77 56 128 45 104 109
220 182 328 54 81 166 224 175 224 4 0 0 -8 -7 -17z m2696 -22 c-3 -6 -11 -11
-17 -11 -6 0 -6 6 2 15 14 17 26 13 15 -4z m-1907 -16 c-3 -3 -9 2 -12 12 -6
14 -5 15 5 6 7 -7 10 -15 7 -18z m702 -16 c0 -6 -4 -7 -10 -4 -5 3 -10 11 -10
16 0 6 5 7 10 4 6 -3 10 -11 10 -16z m795 -29 c-3 -5 3 -10 14 -10 25 0 28
-15 5 -24 -25 -10 -29 -7 -30 19 -1 14 2 25 8 25 5 0 6 -4 3 -10z m-198 -57
l-5 -48 -76 -3 c-75 -3 -88 2 -64 26 18 18 -5 31 -57 34 -79 4 -91 5 -142 12
-108 16 -49 26 147 26 l201 0 -4 -47z m638 37 c-3 -5 -11 -10 -16 -10 -6 0 -7
5 -4 10 3 6 11 10 16 10 6 0 7 -4 4 -10z m321 -15 c12 -46 84 -47 84 0 0 24 2
25 64 25 l64 0 -18 -47 -18 -48 -175 0 c-164 0 -173 -1 -148 -16 15 -9 42 -30
61 -48 19 -18 46 -39 60 -46 45 -25 86 -77 111 -141 9 -27 9 -27 -8 -12 -10 9
-30 20 -45 23 -26 7 -40 35 -18 35 21 0 8 28 -30 63 -21 21 -42 37 -45 37 -4
0 -1 -34 5 -50 1 -3 3 -9 4 -15 4 -22 25 -63 36 -70 7 -4 8 -11 2 -18 -6 -7
-12 -21 -16 -32 -3 -11 -3 -4 0 16 6 49 -19 73 -34 32 -7 -17 -11 -21 -11 -10
-1 9 -6 17 -11 17 -6 0 -8 -11 -4 -27 9 -37 14 -44 25 -38 15 10 10 -22 -6
-35 -13 -11 -15 -8 -15 13 0 26 -49 94 -50 69 0 -7 7 -20 15 -28 8 -9 15 -21
15 -27 0 -7 -5 -4 -11 6 -12 21 -33 23 -25 2 7 -19 -13 -19 -40 -1 -21 15 -64
18 -64 5 0 -9 30 -20 40 -14 4 3 13 -2 20 -10 7 -8 21 -15 31 -15 10 0 21 -4
24 -10 9 -14 88 -12 105 3 8 6 12 8 8 4 -3 -4 0 -28 7 -51 11 -36 11 -48 0
-70 -8 -14 -12 -26 -9 -26 3 0 0 -9 -6 -20 -6 -11 -7 -20 -3 -20 4 0 20 -19
35 -43 15 -23 39 -53 54 -66 l28 -24 -28 -23 c-30 -27 -46 -30 -46 -11 -1 6
-9 2 -20 -11 -19 -23 -23 -23 -156 -20 -129 3 -137 4 -155 27 -10 13 -19 32
-19 43 0 18 2 19 16 7 9 -7 24 -18 34 -24 9 -5 29 -18 44 -29 41 -29 44 -9 4
24 -53 44 -80 92 -82 150 -1 28 1 50 5 50 4 0 12 12 17 28 22 58 44 74 100 74
29 -1 52 3 52 9 0 5 -11 9 -25 9 -14 0 -25 4 -25 10 0 16 -49 23 -65 10 -17
-14 -85 -5 -85 11 0 6 9 8 20 4 11 -3 20 -3 20 2 0 4 -9 14 -20 21 -15 9 -20
23 -20 59 0 45 -1 46 -15 26 -13 -19 -20 -20 -47 -12 -63 18 -128 9 -128 -17
0 -8 22 -18 60 -26 33 -6 60 -16 60 -21 0 -5 6 -7 13 -4 9 3 12 -25 12 -124 0
-71 -3 -129 -6 -129 -5 0 -30 119 -34 162 -1 10 -4 21 -8 25 -4 4 -5 -27 -2
-68 4 -55 3 -66 -5 -45 -5 16 -10 52 -11 80 -2 67 -10 106 -20 106 -4 0 -7
-18 -6 -41 1 -25 -4 -43 -12 -49 -17 -10 -41 11 -41 35 0 9 -4 14 -9 10 -6 -3
-6 -18 0 -37 20 -72 -18 -99 -56 -40 -11 17 -26 31 -32 32 -7 0 -13 12 -13 28
0 21 5 28 20 29 11 1 20 -2 20 -8 0 -5 6 -9 14 -9 9 0 12 -7 9 -22 -4 -18 -2
-17 11 6 16 29 12 82 -4 56 -12 -19 -23 6 -22 47 1 18 -3 33 -8 33 -6 0 -10
-6 -10 -13 0 -19 -53 -67 -66 -59 -6 4 -13 15 -17 25 -10 28 -27 10 -27 -29 0
-22 6 -37 15 -40 8 -4 15 -11 15 -17 0 -6 7 -19 16 -29 15 -16 15 -18 1 -24
-9 -3 -14 -13 -11 -22 4 -11 -1 -9 -15 7 -22 25 -26 37 -36 114 -8 60 -28 58
-36 -4 -6 -41 -6 -40 -7 19 -1 40 2 61 8 57 6 -4 10 8 10 28 0 19 7 40 15 47
8 7 15 18 15 26 0 7 4 16 10 19 5 3 7 0 4 -8 -3 -8 -1 -18 5 -21 10 -7 21 6
72 87 17 26 37 47 45 47 8 0 14 5 14 11 0 5 5 7 11 4 7 -5 4 -14 -8 -27 -18
-21 -18 -21 15 -4 18 9 30 21 27 26 -7 11 61 31 81 23 8 -3 14 0 14 6 0 6 -6
12 -12 12 -7 1 10 5 37 10 36 6 67 4 110 -7 72 -18 102 -23 135 -24 110 -2
120 2 120 48 0 33 47 31 56 -3z m-2281 -27 c4 -16 3 -28 -2 -28 -11 0 -33 57
-25 65 9 8 20 -7 27 -37z m697 -30 c-6 -6 -12 -6 -16 1 -4 6 -2 11 3 11 6 0
12 12 12 28 l2 27 4 -29 c3 -16 0 -33 -5 -38z m755 22 c-1 -12 -8 -20 -19 -20
-23 0 -32 -16 -12 -24 14 -5 14 -8 0 -21 -22 -23 -38 -19 -31 8 4 12 8 26 9
32 1 7 38 38 53 44 1 1 1 -8 0 -19z m340 14 c-3 -3 -12 -4 -19 -1 -8 3 -5 6 6
6 11 1 17 -2 13 -5z m767 -15 c-29 -12 -36 -10 -22 5 7 7 19 11 27 8 11 -4 10
-7 -5 -13z m239 -11 c10 -5 16 -12 14 -15 -3 -2 -14 0 -26 6 -12 7 -59 10
-113 8 -106 -3 -158 -23 -158 -59 0 -16 -3 -19 -11 -11 -16 16 4 48 38 62 73
30 208 35 256 9z m-1642 -5 c-5 -10 -21 -29 -35 -42 l-26 -24 17 41 c12 27 24
42 36 42 14 0 16 -4 8 -17z m-1109 -35 c26 -50 27 -57 16 -80 -6 -13 -5 -16 7
-12 8 4 15 2 15 -4 0 -18 -38 -20 -54 -3 -13 15 -20 59 -17 119 1 32 8 28 33
-20z m2753 6 c9 -9 13 -19 10 -22 -3 -3 -11 1 -18 10 -6 9 -19 18 -27 21 -12
4 -12 6 2 6 9 1 24 -6 33 -15z m-206 2 c-2 -2 -17 -6 -34 -10 -22 -5 -26 -4
-15 4 14 9 59 15 49 6z m-1942 -38 c-3 -7 -5 -2 -5 12 0 14 2 19 5 13 2 -7 2
-19 0 -25z m2083 -4 c27 -28 65 -26 88 3 11 15 12 15 12 -4 0 -25 -45 -57 -68
-48 -9 3 -18 5 -19 3 -1 -2 -13 8 -27 21 -26 25 -37 17 -13 -9 10 -12 9 -12
-6 0 -16 12 -20 12 -27 0 -5 -8 -12 -11 -17 -7 -4 5 -1 12 7 17 8 5 11 12 7
16 -4 4 -16 -4 -27 -18 -15 -19 -29 -26 -55 -26 -50 0 -54 16 -6 24 23 4 49
17 62 30 29 31 60 30 89 -2z m218 -132 c34 -52 74 -116 88 -143 25 -44 54 -65
54 -39 0 7 7 7 20 0 11 -6 25 -8 30 -5 6 3 10 2 10 -4 0 -5 -5 -13 -10 -16 -6
-4 -8 -16 -5 -28 5 -16 4 -18 -3 -8 -9 12 -13 12 -27 -3 -10 -10 -27 -15 -43
-12 -15 2 -33 5 -41 5 -9 1 -11 9 -7 26 5 18 2 25 -8 25 -19 0 -30 -31 -14
-41 6 -4 -5 -6 -25 -5 -44 4 -62 16 -24 16 25 0 32 8 28 37 -1 9 10 11 39 8
23 -3 40 -2 38 2 -11 23 -51 88 -117 187 -73 111 -102 163 -64 116 11 -14 48
-67 81 -118z m-3565 113 c-3 -9 -8 -14 -10 -11 -3 3 -2 9 2 15 9 16 15 13 8
-4z m2014 -19 c-3 -8 -1 -17 6 -19 9 -3 9 -7 0 -19 -7 -8 -11 -17 -8 -20 3 -3
0 -10 -7 -16 -10 -8 -13 -1 -12 31 2 57 2 57 15 57 6 0 9 -6 6 -14z m-77 -42
l0 -36 -152 4 c-136 4 -153 6 -156 22 -7 36 26 45 171 46 l137 0 0 -36z m1130
22 c0 -17 -60 -56 -87 -56 -10 0 -34 16 -53 35 l-34 35 87 0 c68 0 87 -3 87
-14z m311 -22 c-18 -8 -36 -12 -39 -9 -10 10 21 25 48 24 23 -1 22 -2 -9 -15z
m-165 -12 c-16 -2 -32 0 -37 5 -5 5 7 7 29 4 34 -5 35 -6 8 -9z m-65 -29 c-8
-15 -10 -15 -11 -2 0 17 10 32 18 25 2 -3 -1 -13 -7 -23z m154 -14 c-4 -5 1
-19 11 -30 23 -26 7 -44 -27 -30 -20 7 -30 4 -53 -16 -16 -13 -26 -27 -23 -30
3 -3 13 2 22 11 20 20 39 20 55 1 11 -13 8 -15 -19 -15 -17 0 -31 -5 -31 -11
0 -6 17 -8 48 -5 37 5 41 4 19 -3 -16 -6 -35 -18 -43 -28 -7 -10 -14 -13 -14
-6 0 13 -39 53 -51 53 -4 0 -14 -6 -22 -14 -8 -8 -19 -11 -27 -6 -9 6 -7 10 9
15 22 7 27 20 11 30 -5 3 -10 11 -10 17 0 7 6 6 15 -2 19 -15 19 -11 0 33
l-14 35 24 -11 c15 -8 19 -14 12 -19 -6 -4 -8 -10 -5 -14 4 -3 23 3 42 15 25
16 35 18 39 9 4 -8 8 -5 12 10 4 12 12 22 17 22 5 0 6 -5 3 -11z m-1435 -25
c0 -8 6 -11 14 -8 10 4 14 -1 13 -14 -1 -24 -21 -17 -49 17 -23 27 -22 30 2
24 11 -3 20 -11 20 -19z m-1070 -3 c0 -11 12 -29 26 -40 15 -12 21 -21 13 -21
-8 0 -24 15 -36 33 -25 37 -28 47 -13 47 6 0 10 -9 10 -19z m2590 -6 c0 -8 -6
-15 -14 -15 -8 0 -16 7 -20 15 -4 10 1 15 14 15 11 0 20 -7 20 -15z m-1439
-19 c1 -6 1 -18 0 -26 -2 -13 -1 -13 8 0 5 8 7 18 5 22 -3 4 2 8 11 8 11 0 15
-5 11 -15 -15 -38 -17 -50 -5 -30 18 30 19 31 29 15 5 -8 5 -21 -1 -31 -8 -17
-12 -16 -53 4 -37 18 -44 26 -44 48 1 21 5 25 19 22 11 -3 20 -10 20 -17z
m1144 5 c-3 -6 -11 -11 -17 -11 -6 0 -6 6 2 15 14 17 26 13 15 -4z m-674 -9
c-7 -2 -18 1 -23 6 -8 8 -4 9 13 5 13 -4 18 -8 10 -11z m1019 -23 c0 -6 -4 -7
-10 -4 -5 3 -10 11 -10 16 0 6 5 7 10 4 6 -3 10 -11 10 -16z m-492 -50 c-2
-20 -5 -18 -15 15 -11 36 -11 38 3 24 9 -8 14 -26 12 -39z m106 45 c9 -3 16
-15 16 -25 0 -14 7 -19 29 -19 31 0 61 -30 61 -60 -1 -9 -11 -3 -29 18 -25 29
-31 32 -56 22 -34 -13 -43 -6 -27 21 13 20 7 44 -8 34 -5 -3 -11 -1 -15 5 -7
11 5 13 29 4z m-2106 -46 c6 -6 12 -16 12 -23 0 -14 32 -26 123 -45 60 -12 75
-27 61 -57 -4 -10 -6 -22 -5 -26 1 -5 -3 -6 -8 -3 -15 10 -43 -6 -37 -21 3 -8
1 -11 -4 -8 -17 11 -11 -7 8 -21 9 -7 29 -14 43 -14 27 0 54 -22 42 -33 -3 -4
-1 -7 5 -7 7 0 12 4 12 9 0 14 60 74 93 95 28 17 30 17 53 -5 13 -12 26 -20
29 -17 4 3 -6 15 -21 27 -21 16 -24 24 -15 35 6 7 22 34 35 60 23 45 23 45 41
26 14 -16 15 -22 5 -35 -10 -12 -9 -20 4 -40 13 -20 14 -30 5 -46 -9 -17 -7
-25 10 -43 14 -15 17 -26 11 -36 -13 -20 -13 -53 0 -45 6 3 10 -1 10 -10 0 -9
-4 -14 -9 -11 -5 3 -12 -6 -15 -20 -4 -14 -16 -35 -26 -47 -22 -23 -26 -37
-10 -37 6 0 10 5 10 12 0 6 2 9 5 6 9 -9 -24 -75 -50 -99 -38 -36 -67 -94 -59
-124 l6 -25 19 23 c22 27 24 20 4 -26 -17 -42 -35 -57 -29 -25 4 19 3 20 -4 4
-4 -10 -21 -25 -38 -32 l-29 -14 29 6 c25 4 28 3 18 -9 -18 -22 -1 -29 26 -11
l25 16 -17 -23 c-22 -33 -20 -46 5 -23 13 11 18 26 15 38 -6 23 3 66 14 66 4
0 12 -18 19 -41 7 -22 19 -43 27 -46 8 -3 14 -10 14 -15 0 -6 12 -19 26 -31
20 -15 39 -20 73 -18 45 2 48 1 81 -45 l34 -48 9 27 c12 36 23 34 38 -8 8 -22
20 -35 31 -35 22 0 23 -3 -5 67 -45 111 -57 157 -44 165 8 5 6 8 -7 8 -16 0
-17 2 -5 17 12 15 12 16 -3 10 -10 -3 -18 -2 -18 3 0 6 8 10 18 10 11 0 13 3
5 8 -7 4 -11 21 -9 37 4 30 -8 55 -25 55 -11 0 -8 -59 3 -66 5 -3 4 -13 -1
-22 -4 -9 -9 -42 -10 -74 -1 -53 0 -57 26 -67 l28 -11 -30 4 c-16 2 -38 0 -48
-6 -13 -7 -23 -6 -30 1 -6 6 -20 11 -31 11 -19 0 -19 0 -1 21 19 20 19 20 -9
10 -40 -16 -80 8 -114 67 -11 19 -10 28 4 58 9 20 17 48 16 64 0 21 5 30 22
34 27 7 60 77 53 112 -3 18 3 33 19 49 24 24 30 55 25 123 -1 17 2 32 6 32 13
0 10 54 -4 68 -7 7 -13 21 -13 30 1 27 45 -38 47 -68 2 -34 10 -85 18 -109 17
-55 22 -93 24 -175 1 -40 14 -24 18 21 1 20 8 42 14 47 9 8 10 6 6 -6 -4 -10
-3 -18 2 -18 10 0 8 -31 -4 -49 -5 -9 -4 -12 2 -8 6 4 10 -6 11 -23 0 -21 -4
-30 -15 -30 -10 0 -14 6 -10 19 3 14 1 18 -10 14 -8 -3 -13 -15 -11 -27 2 -17
9 -21 33 -19 25 2 27 1 10 -7 -16 -7 -16 -9 -4 -9 20 -1 32 -53 16 -63 -8 -5
-6 -8 5 -8 9 0 20 -5 24 -11 4 -8 -1 -9 -17 -5 -22 6 -23 6 -4 -5 19 -12 19
-12 0 -20 -17 -7 -18 -8 -2 -8 19 -1 24 -21 5 -21 -7 0 -5 -5 5 -11 9 -5 17
-15 17 -20 0 -6 -6 -7 -12 -3 -8 5 -7 1 2 -10 8 -10 16 -25 17 -35 9 -42 8
-71 -1 -71 -6 0 -3 -5 7 -11 9 -5 17 -18 17 -27 1 -21 18 -43 48 -59 30 -18
30 -18 42 30 25 103 96 241 143 280 12 10 37 24 55 32 53 23 92 66 92 100 0
17 -18 68 -40 113 l-39 82 21 20 c12 11 27 20 32 20 6 0 19 7 29 14 17 13 16
19 -10 120 -24 92 -31 108 -51 113 -12 3 -21 7 -19 10 3 2 16 1 29 -2 20 -5
28 -19 46 -79 12 -39 22 -78 23 -86 1 -8 4 -4 9 10 6 21 7 18 7 -16 -1 -26 6
-51 21 -71 27 -38 29 -57 2 -25 -22 27 -51 23 -93 -11 l-26 -22 39 -80 c47
-96 51 -135 14 -164 -26 -21 -27 -51 -2 -51 7 0 25 -6 39 -14 14 -7 43 -16 65
-20 45 -9 88 -30 115 -57 10 -10 19 -15 19 -10 0 14 -60 58 -103 76 -21 8 -37
22 -37 31 0 10 -6 14 -15 11 -8 -4 -17 -2 -20 4 -4 5 -17 7 -31 5 -13 -3 -24
-2 -24 1 0 16 35 43 56 43 13 0 26 5 29 10 3 6 -5 10 -19 10 -21 0 -27 8 -41
53 -10 28 -29 73 -44 100 -22 41 -24 49 -11 58 16 10 28 9 135 -15 81 -18 213
-69 267 -103 36 -22 45 -23 245 -23 332 0 393 18 451 130 28 53 33 58 27 30
-4 -19 -11 -39 -16 -45 -12 -12 -12 -28 1 -20 18 11 -11 -53 -33 -72 l-21 -18
15 25 c9 14 19 34 22 45 6 16 3 15 -13 -5 -11 -14 -20 -28 -20 -31 0 -4 -14
-9 -30 -13 -19 -3 -34 -14 -39 -29 -14 -36 -59 -99 -93 -130 -28 -26 -29 -30
-15 -44 13 -14 9 -25 -43 -116 l-57 -101 44 -124 c45 -129 51 -158 31 -146 -7
4 -4 -2 6 -14 11 -12 22 -22 27 -22 7 0 -38 158 -71 248 -22 58 -21 67 10 75
22 6 62 -21 66 -44 2 -8 19 -65 38 -128 19 -63 36 -137 37 -163 2 -41 7 -53
31 -69 15 -11 28 -16 28 -10 0 6 -9 15 -20 21 -14 7 -20 21 -20 43 0 18 -7 56
-14 85 l-15 54 22 -19 c12 -10 24 -20 27 -23 8 -9 201 -134 240 -156 23 -13
35 -28 36 -42 2 -28 14 -42 14 -16 0 15 4 13 19 -11 19 -31 35 -129 20 -119
-5 3 -9 14 -9 25 0 10 -2 19 -4 19 -2 0 -12 3 -22 7 -12 4 -15 3 -10 -5 4 -7
1 -12 -8 -12 -9 0 -16 -5 -16 -11 0 -8 -4 -9 -13 0 -8 6 -16 9 -19 6 -3 -3
-19 11 -37 31 -18 19 -36 33 -39 29 -4 -3 16 -27 43 -53 116 -111 152 -171
140 -232 -9 -39 -27 -80 -36 -80 -5 0 -25 26 -45 58 -20 31 -48 69 -63 83 -14
14 -46 51 -71 82 -24 31 -46 54 -48 52 -2 -2 17 -33 43 -70 l47 -66 -38 4
c-22 2 -45 2 -51 0 -15 -6 -17 -59 -3 -66 6 -3 5 -4 -2 -3 -7 1 -15 20 -18 41
-4 34 -9 40 -37 47 -18 5 -33 13 -33 18 0 5 21 0 46 -10 55 -24 52 -24 56 -2
3 9 -10 46 -27 82 -18 36 -30 70 -28 75 2 6 -13 26 -33 45 -32 30 -34 31 -20
8 10 -14 24 -29 32 -32 8 -3 14 -10 14 -16 0 -6 -4 -8 -10 -5 -15 9 -13 3 25
-74 19 -39 35 -73 35 -76 0 -10 -70 24 -128 63 -32 22 -65 41 -73 42 -37 6
-38 -1 -8 -62 16 -35 35 -62 42 -61 14 3 22 -47 9 -56 -5 -3 -2 -17 5 -31 7
-14 13 -20 13 -15 0 7 27 10 74 7 45 -2 77 1 81 7 3 6 17 11 30 11 19 0 22 4
19 23 l-5 22 10 -22 c6 -13 16 -23 22 -23 7 0 21 -7 31 -17 17 -15 18 -15 18
1 0 24 22 15 37 -16 7 -14 19 -31 27 -38 24 -19 -20 -80 -57 -80 l-28 0 30 37
c22 26 27 39 19 45 -7 4 -15 4 -18 -1 -5 -8 -93 -61 -173 -106 -27 -15 -51
-24 -54 -21 -3 3 -14 -4 -24 -16 -21 -23 -24 -32 -10 -23 5 3 12 1 16 -5 7
-11 -11 -12 -39 -1 -13 5 -27 35 -46 97 -16 49 -35 103 -44 119 -9 17 -16 33
-16 37 0 12 -83 179 -87 174 -2 -2 14 -42 36 -89 62 -132 71 -157 73 -199 1
-21 5 -38 10 -38 5 0 4 -9 -2 -19 -5 -11 -10 -37 -10 -58 0 -21 -5 -45 -10
-53 -8 -12 -10 -9 -10 12 0 15 -5 39 -11 55 l-12 28 -8 -25 c-8 -21 -8 -20 -4
8 3 19 0 32 -6 32 -7 0 -9 9 -6 21 4 15 2 19 -8 15 -8 -3 -12 0 -9 8 5 14 -30
59 -40 49 -3 -3 -6 -1 -6 5 0 7 5 12 11 12 14 0 3 47 -15 65 -6 7 -20 41 -30
76 -22 79 -36 109 -104 229 -61 106 -88 140 -111 140 -11 0 -8 -7 11 -23 15
-12 51 -65 82 -117 53 -92 55 -98 70 -222 9 -70 15 -130 14 -135 -4 -13 24
-103 33 -109 12 -7 11 5 -5 59 -8 26 -10 47 -6 47 5 0 13 12 19 28 9 23 10 20
5 -22 -3 -29 -1 -51 5 -55 5 -4 17 -42 26 -86 9 -44 18 -88 21 -97 4 -15 -1
-18 -29 -18 -18 0 -56 7 -83 15 -32 9 -50 11 -55 4 -3 -6 -25 -8 -50 -5 -24 2
-60 5 -79 6 l-35 2 28 10 c28 10 38 38 13 38 -22 0 -27 27 -5 33 10 3 19 10
19 15 0 15 -89 34 -123 26 -20 -4 -27 -3 -23 5 5 7 1 9 -8 5 -9 -3 -13 -10
-10 -15 10 -16 -7 -31 -21 -19 -10 8 -15 8 -20 -1 -4 -6 -2 -15 5 -19 28 -18
-4 -30 -72 -29 -63 1 -74 5 -95 28 -23 25 -24 31 -21 168 2 96 0 139 -7 132
-5 -5 -12 -68 -14 -140 -2 -109 -5 -128 -17 -118 -8 6 -25 8 -38 5 -22 -5 -25
-3 -28 26 -2 17 -9 34 -17 36 -10 3 -12 -1 -8 -14 4 -11 -3 -5 -15 11 -12 17
-41 48 -63 70 l-40 40 1 245 c1 169 5 245 13 248 7 2 11 41 11 109 0 87 -2
104 -14 100 -18 -7 -22 16 -18 98 2 37 10 69 20 83 22 29 100 44 166 31 61
-11 71 -4 22 16 -72 30 -146 37 -146 14 0 -6 5 -7 10 -4 6 3 10 1 10 -4 0 -6
-11 -11 -24 -11 -16 0 -32 -12 -49 -37 -39 -57 -79 -150 -75 -175 3 -17 9 -6
24 37 l21 60 7 -75 c3 -41 11 -76 16 -78 6 -2 10 -19 10 -38 0 -21 -4 -33 -10
-29 -6 4 -11 -50 -12 -154 -2 -189 -2 -196 -22 -283 -18 -82 -35 -116 -46 -97
-10 14 -26 131 -38 260 -5 61 -4 94 5 115 14 35 17 72 4 59 -5 -6 -19 -48 -31
-95 -12 -47 -24 -92 -27 -100 -10 -25 -22 49 -13 78 5 15 9 21 9 15 1 -7 6
-13 12 -13 6 0 9 7 6 14 -3 8 9 50 27 93 38 88 50 139 36 148 -6 3 -10 -6 -10
-20 0 -14 -14 -62 -32 -106 l-32 -81 -19 39 c-11 21 -29 48 -40 61 -27 29 -2
30 30 0 27 -25 31 -13 7 21 -15 21 -15 23 7 39 13 9 35 19 49 22 25 6 25 6
-10 24 -19 10 -51 19 -72 19 -32 0 -38 3 -38 21 0 11 -4 28 -10 36 -7 12 -10
11 -16 -5 -4 -11 -27 -41 -50 -67 -37 -39 -44 -43 -49 -28 -3 10 -3 31 1 46 5
18 3 25 -4 20 -6 -3 -14 -20 -17 -37 -5 -23 -9 -28 -16 -18 -6 10 -9 2 -9 -23
0 -24 7 -45 19 -57 19 -19 18 -20 -57 -40 -89 -24 -135 -60 -104 -83 21 -16
27 -39 11 -49 -17 -10 -40 1 -32 15 4 6 -2 4 -12 -4 -17 -14 -18 -13 -12 3 8
21 3 21 -28 1 -14 -9 -25 -23 -25 -32 0 -18 -46 -62 -64 -62 -8 0 -17 11 -20
25 -5 19 -13 25 -34 26 -15 0 -34 2 -42 4 -8 2 -37 8 -64 14 -43 10 -51 10
-65 -6 -15 -16 -15 -16 2 -3 13 9 21 10 28 3 8 -8 2 -13 -20 -18 -22 -5 -33
-14 -37 -31 -7 -27 18 -113 47 -160 10 -17 19 -38 19 -45 -1 -18 -80 139 -80
158 0 19 -14 16 -36 -8 -35 -39 -53 -43 -80 -18 -28 26 -33 48 -6 28 15 -12
16 -12 4 2 -7 9 -19 41 -27 70 -7 30 -16 61 -20 69 -4 11 7 23 35 39 37 21 45
21 116 12 41 -6 78 -11 82 -11 4 1 -29 13 -74 29 -44 15 -94 38 -111 51 -17
12 -35 20 -40 17 -5 -4 -10 0 -10 8 0 19 2 19 31 0 22 -15 24 -14 30 10 4 14
13 25 21 25 8 0 15 4 15 10 0 5 7 7 15 3 10 -3 15 0 13 8 -2 8 3 13 12 11 40
-10 50 -10 50 -4 0 4 -25 13 -56 20 -43 10 -59 11 -70 1 -12 -10 -13 -7 -8 20
7 32 -2 37 -45 32 -7 -2 -10 3 -6 9 4 6 13 9 21 6 8 -3 11 0 8 9 -3 8 -13 11
-22 9 -15 -5 -15 -4 1 6 21 13 23 45 2 37 -11 -5 -13 2 -11 29 1 19 -1 37 -6
40 -5 3 -6 10 -2 15 3 5 10 7 15 4 5 -4 9 -2 9 3 0 6 -7 12 -15 16 -8 3 -15
10 -15 16 0 6 4 9 9 5 6 -3 6 7 1 26 -12 40 -11 372 1 390 7 12 9 12 10 -1 1
-21 6 -42 15 -65 7 -18 6 -18 -9 -6 -11 9 -17 10 -17 2 0 -6 11 -17 25 -23 16
-7 25 -19 25 -34 0 -13 5 -26 10 -29 6 -3 10 -11 10 -17 0 -18 -39 23 -43 46
-4 18 -4 18 -6 -4 0 -14 5 -34 13 -45 7 -11 17 -31 21 -45 10 -34 54 -80 71
-73 8 3 14 0 14 -7 0 -6 -4 -8 -10 -5 -29 18 -2 -20 64 -89 52 -55 73 -83 68
-94 -5 -15 -4 -15 12 1 23 23 46 22 46 -3 0 -13 5 -18 15 -14 9 4 14 14 13 22
-2 12 13 21 57 34 45 14 50 17 20 12 -22 -3 -50 -8 -62 -11 -17 -4 -26 2 -40
25 -10 16 -38 46 -62 66 -44 37 -57 44 -45 24 4 -6 3 -8 -3 -5 -6 4 -10 17
-10 31 0 39 -55 131 -78 131 -11 0 -20 7 -21 15 -1 10 1 11 3 2 4 -10 8 -9 17
4 16 21 10 47 -15 70 -20 18 -26 44 -9 44 15 0 12 21 -6 41 -15 17 -14 18 20
12 43 -7 47 7 11 35 -21 17 -26 31 -30 86 -3 49 -1 68 8 72 20 7 20 61 0 74
-14 8 -8 9 27 4 25 -3 51 -11 58 -16z m567 -6 c-8 -8 -25 10 -19 20 4 6 9 5
15 -3 4 -7 6 -15 4 -17z m-688 -4 c-9 -7 -24 -22 -33 -33 -8 -11 -12 -13 -8
-5 11 24 36 50 47 50 6 0 3 -6 -6 -12z m803 1 c0 -5 -4 -7 -10 -4 -13 8 -13
-1 2 -28 10 -20 10 -21 -5 -8 -21 17 -22 51 -2 51 8 0 15 -5 15 -11z m1690
-17 c0 -4 -9 -8 -19 -8 -11 0 -17 4 -15 8 3 4 12 8 20 8 8 0 14 -4 14 -8z
m114 0 c3 -5 -8 -9 -24 -9 -16 0 -27 4 -24 9 3 4 14 8 24 8 10 0 21 -4 24 -8z
m-3649 -22 c3 -5 1 -10 -4 -10 -6 0 -11 5 -11 10 0 6 2 10 4 10 3 0 8 -4 11
-10z m3334 -16 c12 -14 20 -29 17 -32 -12 -11 -59 13 -67 36 -12 32 21 30 50
-4z m142 0 c8 4 6 1 -3 -7 -25 -20 -23 -24 17 -31 19 -4 37 -12 41 -18 5 -8
-3 -9 -26 -5 -18 4 -41 7 -52 7 -10 0 -16 5 -13 10 9 14 -9 12 -23 -2 -10 -10
-15 -10 -23 2 -9 13 -10 13 -6 0 2 -8 -2 -23 -11 -33 -8 -9 -12 -20 -9 -24 4
-3 16 6 28 20 11 15 26 27 32 27 6 0 1 -7 -11 -16 -12 -8 -22 -20 -22 -26 0
-6 11 -2 23 11 15 13 30 19 40 15 21 -8 22 -33 3 -40 -8 -3 -16 -13 -19 -23
-3 -12 -16 -18 -47 -19 -24 -2 -48 -6 -53 -9 -6 -4 -8 2 -5 14 3 11 1 27 -4
36 -17 32 1 66 43 78 21 7 46 20 56 31 11 13 19 15 24 7 4 -6 13 -8 20 -5z
m104 6 c-3 -5 -12 -10 -18 -10 -7 0 -6 4 3 10 19 12 23 12 15 0z m115 -4 c0
-25 -19 -66 -30 -66 -6 0 -9 4 -6 9 4 5 -7 12 -24 16 -42 9 -37 21 10 29 23 4
38 11 35 16 -3 6 -1 10 4 10 6 0 11 -6 11 -14z m-3642 -12 c12 -4 22 -14 23
-23 0 -9 3 -11 5 -4 3 7 12 9 20 6 16 -6 19 -33 4 -33 -6 0 -9 -3 -9 -7 4 -27
-3 -33 -28 -27 -26 7 -27 6 -13 -12 8 -10 19 -22 23 -25 5 -4 -2 -9 -15 -12
-28 -7 -33 -36 -9 -54 15 -11 14 -12 -1 -13 -24 0 -27 9 -30 79 -1 35 -6 65
-10 67 -14 9 -8 24 10 25 13 0 12 2 -5 9 -48 19 -19 38 35 24z m972 -9 c-6 -8
-9 -19 -5 -25 3 -5 2 -10 -4 -10 -5 0 -12 4 -15 9 -9 15 5 41 21 41 12 0 13
-3 3 -15z m-236 -7 c-7 -11 -34 -10 -34 1 0 6 9 9 19 8 11 0 17 -5 15 -9z
m871 2 c3 -5 1 -10 -4 -10 -6 0 -11 5 -11 10 0 6 2 10 4 10 3 0 8 -4 11 -10z
m1625 -20 c4 -3 10 -15 14 -26 5 -17 0 -26 -29 -42 -34 -21 -48 -52 -22 -52
12 0 -11 -20 -24 -20 -14 0 16 92 33 101 13 7 16 18 13 42 -3 17 -2 25 1 17 4
-8 10 -17 14 -20z m245 20 c-3 -5 -10 -10 -16 -10 -5 0 -9 5 -9 10 0 6 7 10
16 10 8 0 12 -4 9 -10z m55 0 c0 -5 -7 -10 -16 -10 -8 0 -12 5 -9 10 3 6 10
10 16 10 5 0 9 -4 9 -10z m636 -5 c-2 -5 -10 -8 -17 -7 -8 2 -56 4 -106 4 -51
0 -93 4 -93 9 0 4 49 7 110 6 68 -1 108 -6 106 -12z m-3542 -10 c-7 -16 -24
-21 -24 -6 0 8 7 13 27 20 1 1 0 -6 -3 -14z m177 -20 c-17 -29 -19 -47 -16
-107 3 -40 8 -89 11 -108 4 -26 3 -31 -5 -20 -6 8 -11 24 -11 36 0 11 -9 29
-20 39 -18 16 -20 16 -26 2 -3 -9 1 -24 10 -32 21 -21 20 -35 -1 -34 -10 0
-13 3 -6 6 8 3 3 13 -15 29 -15 15 -28 21 -30 14 -5 -15 18 -70 30 -70 5 0 6
-4 3 -10 -3 -5 -2 -10 4 -10 6 0 8 -7 5 -15 -4 -8 -1 -15 6 -15 6 0 8 -4 5
-10 -3 -5 -1 -10 5 -10 6 0 9 -4 5 -9 -7 -13 28 -23 50 -15 13 5 16 4 11 -4
-4 -7 -16 -12 -27 -12 -10 0 -19 -4 -19 -10 0 -5 4 -10 10 -10 5 0 7 -6 4 -13
-8 -21 21 -51 42 -43 14 6 16 9 5 15 -7 5 -10 14 -7 20 11 16 26 13 20 -4 -4
-8 -1 -15 5 -15 6 0 8 -7 4 -17 -4 -10 -2 -14 4 -10 11 7 38 -52 29 -61 -8 -7
-36 26 -36 42 0 18 -9 20 -30 6 -12 -8 -12 -10 -1 -10 8 0 11 -3 8 -6 -3 -4 3
-18 13 -32 21 -26 27 -72 9 -72 -5 0 -7 5 -3 12 4 6 -1 17 -11 25 -11 7 -15
13 -10 13 4 0 0 9 -9 19 -10 11 -19 25 -20 33 -1 7 -7 22 -13 33 -6 11 -16 37
-22 58 -15 44 -25 47 -40 10 -12 -30 -12 -32 6 44 3 14 -6 43 -26 78 -25 45
-29 59 -21 75 6 11 20 20 30 20 11 0 20 4 20 9 0 5 7 12 16 15 8 3 12 2 9 -4
-3 -6 -1 -10 4 -10 7 0 11 25 11 61 0 46 5 68 21 90 28 40 35 36 10 -6z m1736
-7 c-3 -8 -6 -5 -6 6 -1 11 2 17 5 13 3 -3 4 -12 1 -19z m-774 5 c-19 -7 -16
-23 5 -23 14 0 15 -2 2 -10 -22 -14 -30 -12 -30 8 0 21 9 32 24 31 6 0 5 -3
-1 -6z m814 -15 c-3 -8 -6 -5 -6 6 -1 11 2 17 5 13 3 -3 4 -12 1 -19z m1013
12 c0 -5 -2 -10 -4 -10 -3 0 -8 5 -11 10 -3 6 -1 10 4 10 6 0 11 -4 11 -10z
m-2593 -22 c-3 -8 -6 -5 -6 6 -1 11 2 17 5 13 3 -3 4 -12 1 -19z m2848 -49 c6
-31 4 -37 -14 -42 -12 -3 -26 2 -36 13 -9 10 -23 16 -31 13 -8 -3 -14 0 -14 7
0 6 5 8 11 4 7 -4 10 3 9 17 -3 39 -1 51 10 44 6 -3 10 -15 10 -26 0 -10 5
-19 11 -19 8 0 9 11 5 32 -6 33 -6 33 13 13 11 -11 23 -36 26 -56z m-2910 51
c3 -5 2 -10 -4 -10 -5 0 -13 5 -16 10 -3 6 -2 10 4 10 5 0 13 -4 16 -10z
m1775 -50 c4 -22 6 -40 4 -40 -9 0 -31 66 -26 78 7 19 14 8 22 -38z m1257 44
c-3 -3 -12 -4 -19 -1 -8 3 -5 6 6 6 11 1 17 -2 13 -5z m-3392 -14 c-26 -11
-45 -12 -45 -2 0 4 15 8 33 9 26 2 28 0 12 -7z m1043 -15 c-3 -3 -9 2 -12 12
-6 14 -5 15 5 6 7 -7 10 -15 7 -18z m-620 -5 c4 -12 2 -13 -9 -4 -8 7 -23 14
-34 17 -13 4 -9 5 9 4 16 -1 32 -9 34 -17z m2969 -2 c-3 -8 -6 -5 -6 6 -1 11
2 17 5 13 3 -3 4 -12 1 -19z m-2187 2 c-20 -13 -33 -13 -25 0 3 6 14 10 23 10
15 0 15 -2 2 -10z m1350 -25 c0 -5 -5 -3 -10 5 -5 8 -10 20 -10 25 0 6 5 3 10
-5 5 -8 10 -19 10 -25z m355 25 c-3 -5 -11 -10 -16 -10 -6 0 -7 5 -4 10 3 6
11 10 16 10 6 0 7 -4 4 -10z m416 -17 c7 -19 7 -28 -3 -34 -15 -10 -28 8 -28
39 0 30 18 28 31 -5z m-266 3 c8 4 17 -1 21 -9 4 -12 12 -13 34 -7 40 12 79
-18 73 -55 -3 -15 -1 -25 6 -25 6 0 11 5 11 10 0 6 4 10 10 10 5 0 7 -6 4 -14
-3 -8 -1 -17 5 -21 6 -3 11 -11 11 -16 0 -6 -10 -3 -22 5 -12 9 -33 16 -47 16
-13 0 -33 7 -43 17 -17 15 -24 15 -98 0 -92 -18 -140 -49 -180 -117 -41 -70
-65 -90 -107 -90 -34 -1 -36 -2 -21 -14 22 -16 13 -26 -25 -26 -25 0 -28 -2
-17 -15 7 -8 19 -15 26 -15 8 0 11 -6 8 -15 -4 -9 0 -15 10 -15 9 0 16 7 16
16 0 11 5 14 16 10 9 -3 27 -6 40 -6 13 0 24 -4 24 -10 0 -5 -13 -7 -30 -4
-21 5 -31 2 -35 -9 -5 -12 -13 -13 -46 -5 -21 6 -39 16 -39 23 0 8 -5 15 -12
17 -7 3 2 30 28 77 33 62 40 69 44 49 4 -16 8 -19 14 -10 5 9 18 11 36 7 27
-6 28 -5 26 34 -1 23 1 41 5 41 15 0 18 32 4 46 -8 9 -15 25 -15 37 0 28 27
67 46 67 16 0 19 -16 3 -25 -6 -4 -8 -13 -5 -21 4 -9 -3 -18 -17 -24 -25 -10
-24 -11 18 -16 16 -2 35 2 43 8 10 9 15 9 21 -1 6 -9 17 -9 52 3 24 9 52 16
63 16 13 0 16 5 11 18 -4 9 -10 25 -12 35 -7 23 -23 22 -23 -3 0 -11 -7 -20
-15 -20 -8 0 -15 5 -15 11 0 7 -5 8 -13 3 -7 -5 1 3 17 17 24 21 35 25 53 18
13 -5 30 -6 38 -3z m408 7 c-7 -2 -21 -2 -30 0 -10 3 -4 5 12 5 17 0 24 -2 18
-5z m97 -2 c0 -5 -9 -7 -20 -4 -11 3 -20 7 -20 9 0 2 9 4 20 4 11 0 20 -4 20
-9z m-3260 -16 c0 -8 -4 -15 -10 -15 -5 0 -7 7 -4 15 4 8 8 15 10 15 2 0 4 -7
4 -15z m90 0 c0 -8 -4 -15 -10 -15 -5 0 -10 7 -10 15 0 8 5 15 10 15 6 0 10
-7 10 -15z m823 -10 c-3 -8 -9 -15 -15 -15 -5 0 -6 5 -3 10 3 6 0 10 -7 10
-10 0 -9 3 2 9 18 12 31 5 23 -14z m1438 16 c6 10 9 11 9 2 0 -7 8 -13 18 -14
11 -1 8 -4 -8 -8 -30 -9 -40 -5 -39 17 0 12 2 13 6 3 5 -11 7 -11 14 0z
m-1584 -23 c-3 -8 -6 -5 -6 6 -1 11 2 17 5 13 3 -3 4 -12 1 -19z m829 7 c-3
-8 1 -21 9 -29 8 -8 15 -20 15 -27 0 -6 -9 0 -20 14 -22 28 -26 57 -9 57 6 0
9 -7 5 -15z m967 -30 c-3 -9 -8 -14 -10 -11 -3 3 -2 9 2 15 9 16 15 13 8 -4z
m23 -13 c-7 -21 -36 -38 -36 -22 0 6 4 10 9 10 5 0 13 9 16 21 4 11 9 18 12
16 3 -3 2 -14 -1 -25z m491 -19 c-3 -10 -5 -4 -5 12 0 17 2 24 5 18 2 -7 2
-21 0 -30z m-3278 8 c-7 -10 -21 -24 -33 -31 -15 -9 -12 -3 8 19 34 35 41 39
25 12z m281 9 c0 -5 -5 -10 -11 -10 -5 0 -7 5 -4 10 3 6 8 10 11 10 2 0 4 -4
4 -10z m683 -10 c-3 -12 -8 -19 -11 -16 -5 6 5 36 12 36 2 0 2 -9 -1 -20z
m2380 -18 c26 -44 7 -40 -21 4 -14 21 -18 34 -10 32 7 -3 21 -19 31 -36z m190
-79 c43 -138 55 -193 39 -178 -6 6 -27 65 -46 133 -20 68 -41 132 -46 142 -8
15 -7 20 3 20 9 0 27 -42 50 -117z m-1067 81 c-4 -9 -9 -15 -11 -12 -3 3 -3
13 1 22 4 9 9 15 11 12 3 -3 3 -13 -1 -22z m-2274 -22 c-2 -18 1 -32 8 -32 6
0 8 -12 5 -31 -3 -17 -2 -36 3 -43 5 -6 6 -20 1 -31 -4 -11 -8 -15 -9 -10 -5
36 -10 50 -18 53 -5 1 -7 14 -4 27 2 15 0 25 -7 25 -9 0 -9 5 0 21 6 12 8 30
6 41 -4 12 -1 18 6 15 7 -2 11 -18 9 -35z m119 11 c1 -16 1 -34 0 -40 -1 -7 5
-13 12 -13 8 0 18 -7 21 -16 10 -27 1 -26 -27 2 -19 18 -27 37 -27 60 0 40 19
46 21 7z m674 7 c-2 -31 -15 -37 -15 -7 0 15 4 27 8 27 5 0 8 -9 7 -20z m135
10 c-20 -13 -33 -13 -25 0 3 6 14 10 23 10 15 0 15 -2 2 -10z m-1422 -13 c17
-12 15 -28 -3 -20 -9 3 -32 7 -53 8 -50 4 -52 4 -52 13 0 9 92 9 108 -1z m67
-35 c-6 -6 -45 28 -45 39 0 5 11 -1 25 -13 14 -12 23 -24 20 -26z m3539 32 c3
-8 2 -12 -4 -9 -6 3 -10 10 -10 16 0 14 7 11 14 -7z m-3740 -6 c-3 -4 -11 -5
-19 -1 -21 7 -19 12 4 10 11 0 18 -5 15 -9z m-164 -5 c-8 -3 -17 -9 -20 -13
-3 -4 -11 -2 -18 6 -11 12 -8 14 20 13 18 0 26 -3 18 -6z m1724 -9 c8 -21 8
-24 -5 -24 -5 0 -7 5 -4 10 3 6 1 10 -4 10 -6 0 -11 5 -11 10 0 16 17 12 24
-6z m2183 -28 c-1 -6 8 -10 21 -8 18 3 22 -2 22 -22 0 -26 -40 -72 -49 -57 -3
5 -25 14 -48 21 -38 12 -41 16 -45 51 -2 22 -2 39 0 39 2 0 17 -11 34 -25 31
-26 48 -32 48 -15 0 6 -6 10 -14 10 -7 0 -19 6 -25 14 -10 11 -8 17 6 24 20
12 54 -10 50 -32z m-132 1 l1 -28 -18 23 c-22 29 -23 40 0 36 11 -2 17 -13 17
-31z m-2244 -30 c-8 -8 -11 -4 -11 14 0 33 14 47 18 19 2 -12 -1 -27 -7 -33z
m-1286 13 c-2 -11 -1 -19 3 -19 20 3 32 -3 32 -16 0 -13 -4 -13 -22 -3 -39 23
-48 34 -35 47 17 17 26 13 22 -9z m459 -15 c19 -29 20 -35 5 -35 -5 0 -7 5 -4
10 3 6 -1 10 -10 10 -9 0 -13 5 -10 10 3 6 1 10 -4 10 -6 0 -11 5 -11 10 0 18
17 10 34 -15z m-102 -22 c-3 -16 -7 -22 -10 -15 -4 13 4 42 11 42 2 0 2 -12
-1 -27z m-852 8 c0 -13 -29 -35 -37 -27 -3 3 -1 6 5 6 7 0 12 7 12 15 0 8 5
15 10 15 6 0 10 -4 10 -9z m315 -1 c-3 -5 -15 -10 -26 -10 -11 0 -17 5 -14 10
3 6 15 10 26 10 11 0 17 -4 14 -10z m-431 -24 c-3 -9 -10 -16 -15 -16 -6 0 -5
9 1 21 13 24 24 20 14 -5z m491 14 c3 -6 -4 -10 -17 -10 -18 0 -20 2 -8 10 19
12 18 12 25 0z m1387 -12 c-7 -7 -12 -8 -12 -2 0 14 12 26 19 19 2 -3 -1 -11
-7 -17z m17 -40 c-17 -31 -23 -9 -8 28 9 22 13 25 16 12 2 -9 -1 -27 -8 -40z
m2441 38 c0 -2 -8 -10 -17 -17 -16 -13 -17 -12 -4 4 13 16 21 21 21 13z
m-3240 -16 c0 -5 -4 -10 -10 -10 -5 0 -10 5 -10 10 0 6 5 10 10 10 6 0 10 -4
10 -10z m-990 -32 c0 -3 -5 -8 -12 -10 -19 -7 2 -28 28 -28 13 0 24 -4 24 -10
0 -14 -54 -12 -68 2 -7 7 -12 27 -12 45 0 31 2 32 20 21 11 -7 20 -16 20 -20z
m863 17 c4 -8 2 -17 -3 -20 -6 -4 -10 3 -10 14 0 25 6 27 13 6z m3407 12 c0
-2 -15 -16 -32 -33 l-33 -29 29 33 c28 30 36 37 36 29z m-3769 -80 c-13 -13
-15 31 -3 60 5 14 8 10 10 -16 2 -18 -1 -38 -7 -44z m49 63 c0 -5 -4 -10 -10
-10 -5 0 -10 5 -10 10 0 6 5 10 10 10 6 0 10 -4 10 -10z m-720 -16 c0 -2 -7
-4 -15 -4 -8 0 -15 4 -15 10 0 5 7 7 15 4 8 -4 15 -8 15 -10z m1392 -40 c10
-3 18 -10 18 -15 0 -18 -31 -8 -55 17 -21 22 -23 30 -13 42 11 13 14 12 22
-11 6 -15 18 -29 28 -33z m33 18 c-8 -9 -35 20 -28 31 4 6 11 3 19 -8 8 -10
12 -21 9 -23z m-870 18 c3 -5 0 -21 -8 -35 -11 -23 -15 -24 -26 -12 -10 12
-10 20 1 36 14 23 24 26 33 11z m1352 -30 c-11 -28 -27 -41 -27 -21 0 22 21
62 29 57 5 -4 5 -18 -2 -36z m-1450 4 c-7 -7 -37 7 -37 17 0 6 9 5 21 -1 11
-7 19 -14 16 -16z m714 3 c-10 -9 -11 -8 -5 6 3 10 9 15 12 12 3 -3 0 -11 -7
-18z m3146 -3 c-3 -3 -12 -4 -19 -1 -8 3 -5 6 6 6 11 1 17 -2 13 -5z m-4197
-46 c0 -6 -7 -5 -15 2 -8 7 -15 17 -15 22 0 6 7 5 15 -2 8 -7 15 -17 15 -22z
m684 -76 c10 -17 -4 -15 -26 5 -18 16 -24 57 -11 89 5 13 10 4 18 -32 6 -27
15 -55 19 -62z m129 80 c-3 -12 -10 -22 -15 -22 -5 0 -7 3 -5 8 2 4 7 16 11
26 9 25 17 16 9 -12z m527 -10 c0 -13 -3 -12 -15 4 -10 13 -14 15 -15 5 0 -8
-2 -12 -5 -9 -3 3 -3 13 1 22 5 13 9 14 20 5 8 -6 14 -19 14 -27z m-596 12 c4
-9 5 -17 4 -18 -24 -9 -43 -27 -42 -40 1 -9 -2 -16 -7 -16 -13 0 -11 18 7 56
18 38 29 42 38 18z m235 -61 c-2 -68 -3 -74 -16 -57 -9 12 -12 30 -8 49 4 17
7 37 7 45 0 21 6 40 13 40 3 0 5 -34 4 -77z m-552 32 c5 -4 0 -5 -10 -2 -11 4
-30 10 -43 13 -13 3 -24 10 -24 14 0 9 66 -12 77 -25z m1306 15 c-3 -11 -9
-23 -14 -26 -10 -6 -12 29 -2 39 13 13 21 7 16 -13z m-1498 1 c8 -14 -28 -31
-44 -21 -8 4 -10 13 -7 19 9 13 43 15 51 2z m705 -16 c0 -14 -4 -25 -9 -25 -4
0 -6 11 -3 25 2 14 6 25 8 25 2 0 4 -11 4 -25z m812 3 c-7 -7 -12 -8 -12 -2 0
14 12 26 19 19 2 -3 -1 -11 -7 -17z m-1110 -60 c11 -16 16 -28 12 -28 -3 0 -1
-7 6 -15 7 -8 9 -15 5 -15 -4 0 -3 -6 3 -13 12 -14 43 -100 38 -104 -7 -7 -25
25 -54 94 -17 39 -28 74 -25 77 4 3 -2 15 -12 26 -12 13 -15 25 -9 37 6 16 8
15 12 -7 2 -14 13 -37 24 -52z m1124 30 c-11 -15 -16 -18 -16 -7 0 16 21 42
28 34 2 -2 -3 -14 -12 -27z m-1626 13 c0 -10 -67 -8 -77 3 -3 3 12 6 35 6 23
0 42 -4 42 -9z m1199 -22 c13 -17 21 -32 18 -35 -6 -6 -57 47 -57 58 0 16 16
6 39 -23z m2111 21 c0 -5 -9 -19 -20 -30 -22 -22 -27 -11 -8 20 14 21 28 26
28 10z m-3175 -21 c-4 -5 -12 -9 -18 -8 -9 0 -8 2 1 6 6 2 9 10 6 15 -4 7 -2
8 5 4 6 -4 9 -12 6 -17z m492 -11 c-3 -7 -5 -2 -5 12 0 14 2 19 5 13 2 -7 2
-19 0 -25z m-424 -1 c-7 -14 -11 -14 -33 -1 l-25 14 28 -6 c18 -4 27 -2 27 7
0 7 3 10 6 6 3 -3 2 -12 -3 -20z m-104 -32 c0 -5 -6 -1 -14 9 -8 11 -15 24
-15 30 0 5 7 1 15 -10 8 -10 14 -23 14 -29z m3371 35 c11 -6 12 -12 4 -20 -13
-13 -40 -4 -48 16 -6 16 21 19 44 4z m-2205 -20 c10 -11 15 -20 11 -20 -14 0
-46 21 -46 30 0 16 16 11 35 -10z m-495 1 c0 -6 -4 -13 -10 -16 -5 -3 -10 1
-10 9 0 9 5 16 10 16 6 0 10 -4 10 -9z m215 -11 c-3 -5 -1 -10 5 -10 6 0 8 -4
5 -10 -4 -6 -11 -5 -19 3 -15 13 -12 27 5 27 6 0 7 -4 4 -10z m-848 -16 c-3
-3 -12 -4 -19 -1 -8 3 -5 6 6 6 11 1 17 -2 13 -5z m653 -4 c0 -5 -5 -10 -11
-10 -5 0 -7 5 -4 10 3 6 8 10 11 10 2 0 4 -4 4 -10z m475 -11 c4 -6 14 -8 22
-5 17 7 43 -10 43 -27 0 -5 -9 -2 -19 7 -15 13 -20 14 -24 4 -5 -15 -38 0 -45
20 -5 15 14 16 23 1z m-687 -47 c11 -23 16 -39 10 -36 -10 6 -38 66 -38 80 0
12 6 2 28 -44z m242 13 c0 -5 -5 -3 -10 5 -5 8 -10 20 -10 25 0 6 5 3 10 -5 5
-8 10 -19 10 -25z m-85 15 c10 8 13 7 11 -5 -3 -19 -26 -44 -26 -28 0 6 -2 17
-3 25 -2 7 -2 9 1 5 2 -4 10 -3 17 3z m248 -35 c9 -18 9 -19 -6 -6 -10 7 -17
23 -16 35 0 14 2 16 6 6 3 -8 10 -24 16 -35z m2451 23 c20 -2 36 -6 36 -10 0
-3 3 -13 6 -22 4 -11 -11 -7 -55 15 -34 17 -61 33 -61 35 0 3 9 0 19 -6 11 -5
36 -11 55 -12z m-104 3 c0 -5 -7 -11 -15 -15 -9 -3 -15 0 -15 9 0 8 7 15 15
15 8 0 15 -4 15 -9z m-2476 -72 c2 -19 -1 -43 -5 -54 -7 -19 -8 -19 -8 2 -1
12 -7 24 -13 27 -10 5 -10 7 0 12 17 8 15 34 -3 34 -13 0 -14 2 -3 14 17 19
29 6 32 -35z m2446 -21 c0 -13 0 -14 -29 32 l-23 35 26 -28 c14 -15 26 -33 26
-39z m110 29 c0 -7 9 -18 21 -25 12 -7 18 -16 15 -19 -3 -4 -15 2 -27 12 -13
12 -23 15 -27 9 -4 -6 -15 -13 -24 -17 -10 -3 -18 -14 -18 -24 0 -14 -3 -14
-16 5 -15 22 -14 24 10 43 14 11 26 27 26 35 0 12 4 12 20 4 11 -6 20 -16 20
-23z m-2465 5 c-3 -3 -11 0 -18 7 -9 10 -8 11 6 5 10 -3 15 -9 12 -12z m-262
-27 c-7 -21 -13 -19 -13 6 0 11 4 18 10 14 5 -3 7 -12 3 -20z m-198 -6 c-3 -4
11 -12 31 -18 41 -11 63 -35 64 -68 0 -15 6 -23 17 -23 12 0 14 -3 6 -11 -16
-16 -33 -2 -33 25 0 28 -34 61 -55 52 -9 -3 -14 -2 -11 3 6 9 -16 21 -37 21
-9 0 -9 -2 0 -8 7 -5 -1 -11 -23 -18 -42 -14 -44 -5 -4 21 17 11 28 25 26 32
-3 7 1 10 9 6 8 -3 13 -9 10 -14z m40 11 c3 -5 2 -10 -4 -10 -5 0 -13 5 -16
10 -3 6 -2 10 4 10 5 0 13 -4 16 -10z m472 -41 c-5 -59 -17 -59 -17 0 0 34 4
50 10 46 6 -4 9 -24 7 -46z m2508 30 c10 -14 1 -21 -19 -13 -9 3 -13 10 -10
15 7 12 21 11 29 -2z m53 -75 c23 -48 22 -64 -7 -64 -9 0 -28 -12 -41 -27 -31
-36 -35 -18 -10 48 11 30 20 62 20 72 0 29 14 18 38 -29z m629 30 c3 -9 2 -19
-3 -23 -5 -3 -9 -24 -9 -46 0 -37 -9 -54 -28 -55 -7 0 0 99 9 128 5 17 23 15
31 -4z m-3587 -4 c0 -5 -2 -10 -4 -10 -3 0 -8 5 -11 10 -3 6 -1 10 4 10 6 0
11 -4 11 -10z m-216 -35 c-20 -30 -31 -31 -64 -5 -24 19 -24 19 -2 13 12 -3
25 -9 28 -14 2 -4 14 1 24 11 27 27 34 25 14 -5z m472 3 c-3 -13 -6 -31 -6
-41 0 -10 -4 -15 -10 -12 -5 3 -10 1 -10 -4 0 -6 -4 -11 -10 -11 -15 0 -12 26
5 40 8 7 15 21 15 31 0 11 5 19 11 19 7 0 9 -9 5 -22z m-581 -5 c-1 -10 -10
-33 -21 -50 -14 -24 -26 -33 -46 -33 -63 0 -90 -96 -43 -152 14 -17 24 -33 22
-37 -2 -3 -10 -21 -17 -38 -21 -47 -31 -41 -13 7 15 38 15 41 -5 63 -11 12
-24 39 -27 60 -6 31 -3 44 14 68 12 16 19 34 16 39 -3 5 9 9 28 8 43 -1 51 4
71 47 19 39 23 43 21 18z m642 -38 c-12 -13 -23 -20 -25 -15 -4 11 30 48 40
43 3 -2 -3 -14 -15 -28z m2363 20 c7 -9 8 -15 2 -15 -5 0 -12 7 -16 15 -3 8
-4 15 -2 15 2 0 9 -7 16 -15z m-2950 -5 c0 -5 -2 -10 -4 -10 -3 0 -8 5 -11 10
-3 6 -1 10 4 10 6 0 11 -4 11 -10z m106 -32 c6 -18 24 -25 24 -9 0 5 18 11 39
13 22 2 38 1 35 -1 -2 -2 3 -13 13 -23 9 -10 11 -18 6 -18 -6 0 -16 7 -23 16
-19 22 -62 14 -77 -16 -7 -14 -19 -24 -26 -22 -26 5 -42 -26 -30 -59 9 -23 9
-29 -2 -29 -19 0 -28 17 -13 23 8 3 5 6 -5 6 -10 1 -17 4 -15 9 25 51 34 62
50 62 25 0 24 46 -2 62 -11 7 -20 16 -20 20 0 14 40 -16 46 -34z m554 23 c0
-6 -4 -13 -10 -16 -5 -3 -10 1 -10 9 0 9 5 16 10 16 6 0 10 -4 10 -9z m57 -37
c-2 -13 1 -25 7 -28 6 -2 1 -5 -11 -5 -12 -1 -30 -4 -40 -8 -12 -4 -8 3 11 21
28 27 28 27 10 48 -19 21 -19 21 4 9 18 -10 23 -19 19 -37z m834 17 c-16 -29
-51 -47 -51 -26 0 8 7 15 15 15 8 0 20 9 27 20 16 25 23 18 9 -9z m1466 -3
c-3 -7 -5 -2 -5 12 0 14 2 19 5 13 2 -7 2 -19 0 -25z m-2992 8 c25 2 27 1 12
-7 -10 -6 -31 -8 -46 -4 -26 6 -31 3 -47 -34 -21 -48 -29 -48 -13 0 17 48 28
60 48 50 9 -5 30 -7 46 -5z m4006 -3 c7 -10 10 -15 5 -11 -5 4 -25 -6 -44 -22
-45 -37 -53 -31 -18 15 31 40 38 42 57 18z m-3672 -9 c2 -2 2 -6 -1 -10 -3 -3
-21 2 -39 10 l-34 15 35 -6 c19 -3 37 -7 39 -9z m-279 -9 c7 -9 8 -15 2 -15
-5 0 -12 7 -16 15 -3 8 -4 15 -2 15 2 0 9 -7 16 -15z m695 5 c3 -5 -1 -10 -9
-10 -9 0 -16 5 -16 10 0 6 4 10 9 10 6 0 13 -4 16 -10z m-505 -17 c0 -10 12
-27 26 -38 23 -18 25 -24 15 -41 -11 -19 -12 -19 -9 1 5 28 -32 57 -51 42 -12
-10 -13 -9 -8 6 4 10 7 25 7 33 0 8 5 14 10 14 6 0 10 -8 10 -17z m140 -25 c0
-12 -10 -9 -26 6 -20 21 -17 28 6 14 11 -7 20 -16 20 -20z m84 17 c17 -18 30
-54 22 -62 -3 -3 -8 3 -11 13 -12 38 -23 49 -46 49 -16 0 -23 -5 -21 -15 3
-11 1 -12 -8 -3 -7 6 -9 16 -6 22 10 16 52 13 70 -4z m2513 -32 c-3 -10 -5 -2
-5 17 0 19 2 27 5 18 2 -10 2 -26 0 -35z m1043 10 c-11 -17 -11 -17 -6 0 3 10
6 24 7 30 0 9 2 9 5 0 3 -7 0 -20 -6 -30z m-3730 7 c0 -5 -2 -10 -4 -10 -3 0
-8 5 -11 10 -3 6 -1 10 4 10 6 0 11 -4 11 -10z m1140 -15 c-7 -9 -15 -13 -17
-11 -7 7 7 26 19 26 6 0 6 -6 -2 -15z m-1099 -11 c12 -14 11 -16 -5 -13 -11 2
-21 10 -24 17 -5 17 13 15 29 -4z m274 6 c3 -5 1 -10 -4 -10 -6 0 -11 5 -11
10 0 6 2 10 4 10 3 0 8 -4 11 -10z m883 -20 c-7 -10 -14 -17 -17 -15 -4 4 18
35 25 35 2 0 -1 -9 -8 -20z m2432 5 c0 -12 -28 -35 -44 -35 -11 0 -6 26 6 38
17 17 38 15 38 -3z m-4110 -27 c0 -23 -3 -29 -9 -19 -8 12 -4 51 5 51 2 0 4
-15 4 -32z m139 23 c7 -5 12 -13 10 -18 -2 -5 -12 -1 -21 9 -19 19 -13 24 11
9z m146 -11 c-27 -12 -43 -12 -25 0 8 5 22 9 30 9 10 0 8 -3 -5 -9z m307 -28
c9 -17 15 -39 11 -49 -5 -13 -3 -15 12 -10 14 6 16 5 6 -7 -6 -7 -9 -21 -5
-30 4 -11 1 -16 -10 -16 -9 0 -13 6 -10 14 3 7 -2 30 -10 51 -9 21 -16 46 -16
55 0 10 -5 21 -10 23 -6 3 -5 4 2 3 7 -1 20 -17 30 -34z m221 31 c-7 -2 -21
-2 -30 0 -10 3 -4 5 12 5 17 0 24 -2 18 -5z m3348 -26 c-10 -9 -11 -8 -5 6 3
10 9 15 12 12 3 -3 0 -11 -7 -18z m-4250 -10 c-10 -9 -11 -8 -5 6 3 10 9 15
12 12 3 -3 0 -11 -7 -18z m494 16 c-11 -3 -26 -10 -32 -15 -10 -8 -13 -6 -13
6 0 12 9 16 33 15 21 -1 25 -3 12 -6z m395 -3 c-19 -13 -30 -13 -30 0 0 6 10
10 23 10 18 0 19 -2 7 -10z m34 -6 c3 -8 2 -12 -4 -9 -6 3 -10 10 -10 16 0 14
7 11 14 -7z m-524 -29 c-20 -24 -31 -18 -18 10 8 17 15 22 21 16 7 -7 6 -15
-3 -26z m168 21 c7 -1 18 -8 24 -14 21 -21 -14 -14 -47 9 -17 12 -21 18 -10
14 11 -4 26 -8 33 -9z m1237 -4 c-3 -3 -11 0 -18 7 -9 10 -8 11 6 5 10 -3 15
-9 12 -12z m-1629 -40 c-8 -7 -46 19 -41 28 3 5 14 2 25 -7 11 -9 18 -19 16
-21z m82 21 c-9 -10 -18 -27 -21 -38 -4 -16 -5 -15 -6 6 -1 25 15 49 33 49 5
0 2 -8 -6 -17z m238 2 c5 -11 10 -13 19 -5 20 17 43 2 37 -26 -3 -17 -11 -24
-27 -24 -20 0 -26 8 -53 63 -2 4 1 7 7 7 7 0 14 -7 17 -15z m397 8 c-7 -2 -19
-2 -25 0 -7 3 -2 5 12 5 14 0 19 -2 13 -5z m-245 -22 c-7 -11 -16 -17 -20 -14
-10 5 10 33 23 33 5 0 4 -9 -3 -19z m103 -30 c2 -25 -1 -46 -7 -48 -7 -2 -11
68 -5 96 3 15 10 -11 12 -48z m221 34 c-2 -6 -17 -18 -32 -28 l-29 -18 3 28
c5 35 1 32 34 30 15 -1 26 -7 24 -12z m3163 5 c7 -11 -23 -46 -31 -37 -8 8 6
47 16 47 5 0 12 -5 15 -10z m76 -21 c-5 -13 -10 -19 -10 -12 -1 15 10 45 15
40 3 -2 0 -15 -5 -28z m-4210 -41 c-11 -30 -20 -10 -13 32 4 31 6 32 13 12 5
-12 5 -32 0 -44z m889 52 c0 -5 -7 -10 -15 -10 -8 0 -15 5 -15 10 0 6 7 10 15
10 8 0 15 -4 15 -10z m-3 -40 c1 -11 -2 -20 -5 -20 -4 0 -8 9 -9 20 -1 11 2
20 5 20 4 0 8 -9 9 -20z m-847 -10 c13 -8 13 -10 -2 -10 -9 0 -20 5 -23 10 -8
13 5 13 25 0z m4046 -17 c-10 -10 -19 5 -10 18 6 11 8 11 12 0 2 -7 1 -15 -2
-18z m-4126 3 c0 -18 -17 -29 -30 -21 -8 5 -7 11 1 21 15 18 29 18 29 0z m216
0 c13 -10 23 -11 32 -4 23 20 26 -2 3 -24 -22 -19 -24 -20 -33 -4 -6 11 -17
15 -31 11 -17 -5 -19 -4 -7 4 8 5 11 14 6 18 -4 4 -16 -3 -27 -16 -10 -13 -19
-20 -19 -15 0 12 32 44 45 44 6 0 20 -6 31 -14z m-623 -16 c111 -52 184 -74
259 -78 79 -4 110 7 100 36 -6 18 15 15 22 -4 4 -9 13 -14 21 -10 17 6 21 -9
5 -19 -15 -9 -12 -41 5 -58 12 -13 9 -15 -23 -20 -20 -4 -85 -9 -144 -13 -60
-4 -108 -11 -108 -16 0 -5 5 -6 10 -3 6 3 10 -1 10 -9 0 -9 -7 -16 -16 -16 -8
0 -13 4 -10 9 3 5 -6 30 -19 57 -14 27 -25 50 -25 51 0 1 15 7 33 11 25 7 15
9 -42 6 -41 -2 -78 -8 -83 -14 -5 -6 -4 -7 3 -1 17 14 39 2 33 -17 -5 -15 -4
-15 6 0 12 20 44 12 36 -9 -4 -9 -2 -11 6 -7 7 5 9 2 5 -9 -4 -12 -2 -14 10
-10 11 4 14 2 9 -5 -4 -7 -3 -12 3 -12 17 0 5 -53 -13 -56 -19 -3 -21 17 -3
35 10 10 8 11 -8 5 -11 -4 -17 -3 -12 1 9 11 -23 46 -35 39 -5 -3 -16 0 -25 8
-12 9 -15 9 -9 1 4 -7 3 -13 -2 -13 -5 0 -9 -14 -9 -30 0 -20 3 -26 9 -18 6
10 8 10 8 0 0 -8 9 -11 25 -8 14 3 25 0 25 -5 0 -5 -8 -10 -17 -11 -10 0 -23
-2 -30 -2 -6 -1 -14 -5 -17 -9 -3 -4 -3 -5 0 -2 4 2 16 0 27 -6 14 -8 18 -8
13 0 -4 6 -2 11 3 11 6 0 11 -5 11 -11 0 -8 4 -8 13 -2 6 5 18 8 25 7 6 -1 17
-2 23 -3 6 0 0 -20 -14 -43 -16 -29 -22 -50 -17 -63 4 -11 5 -26 3 -33 -4 -8
0 -10 13 -5 13 5 15 3 9 -8 -6 -11 -5 -12 5 -2 10 10 11 15 1 27 -10 12 -9 15
8 13 15 -1 19 -6 15 -19 -8 -26 3 -22 22 7 15 23 15 27 -2 53 -10 15 -17 31
-16 36 2 5 -4 4 -12 -4 -9 -7 -16 -9 -16 -6 0 15 21 46 31 46 6 0 7 -5 3 -12
-4 -7 -3 -8 5 -4 6 4 9 12 6 17 -4 5 -2 9 3 9 5 0 12 9 15 20 3 11 11 20 17
20 7 0 10 -7 6 -16 -5 -13 -2 -15 16 -10 13 3 67 8 120 10 71 4 104 10 125 23
15 10 24 13 20 7 -3 -6 5 -21 18 -34 l24 -23 -23 -18 c-29 -23 -46 -24 -46 -4
0 9 -6 12 -16 8 -9 -3 -14 -13 -11 -23 6 -24 -17 -51 -48 -54 -20 -3 -25 0
-21 13 5 13 3 12 -8 -2 -8 -11 -33 -20 -63 -23 l-49 -6 -18 40 c-21 47 -39 58
-57 34 -11 -14 -11 -15 1 -5 10 9 17 9 26 2 11 -9 10 -16 -2 -37 -15 -25 -15
-25 0 -8 20 24 34 13 15 -11 -13 -16 -12 -17 4 -4 23 18 21 5 -5 -32 -12 -17
-17 -27 -10 -23 7 4 12 1 12 -8 0 -18 -62 -34 -68 -17 -3 8 -8 9 -16 2 -9 -8
-20 -3 -40 18 -23 24 -28 36 -25 69 4 33 2 38 -13 34 -10 -2 -18 0 -18 6 0 6
-9 9 -19 7 -14 -3 -18 1 -14 11 3 8 0 14 -7 14 -6 0 -8 5 -5 10 3 6 1 10 -5
10 -6 0 -8 5 -5 11 13 20 12 74 -1 106 -13 33 -5 99 10 75 4 -7 12 -12 18 -12
7 0 -1 14 -17 30 -34 35 -29 37 28 10z m1255 4 c17 -12 26 -13 36 -5 10 9 15
8 20 -4 3 -8 15 -15 26 -15 11 0 20 -4 20 -10 0 -13 -27 -13 -35 0 -4 6 -15 8
-26 5 -11 -4 -26 0 -35 9 -8 9 -22 16 -30 16 -8 0 -14 5 -14 10 0 14 12 12 38
-6z m3358 -10 c-4 -9 -9 -15 -11 -12 -3 3 -3 13 1 22 4 9 9 15 11 12 3 -3 3
-13 -1 -22z m-4669 8 c14 -9 6 -52 -10 -52 -6 0 -8 3 -4 6 3 3 2 17 -3 30 -10
25 -4 30 17 16z m1400 2 c-3 -3 -12 -4 -19 -1 -8 3 -5 6 6 6 11 1 17 -2 13 -5z
m3163 -24 c-13 -25 -27 -33 -35 -20 -3 5 -2 10 3 10 5 0 12 9 15 21 3 12 10
18 16 14 8 -4 8 -12 1 -25z m-4045 0 c10 -11 16 -20 13 -20 -3 0 -13 9 -23 20
-10 11 -16 20 -13 20 3 0 13 -9 23 -20z m1641 4 c-4 -12 -2 -15 9 -10 8 3 15
2 15 -3 0 -5 17 -15 38 -23 l37 -15 -32 1 c-18 0 -33 5 -33 10 0 4 -7 3 -15
-4 -11 -9 -15 -9 -15 -1 0 7 -5 9 -11 6 -6 -4 -8 -13 -5 -21 3 -8 1 -14 -4
-14 -6 0 -10 -21 -10 -46 0 -27 -4 -43 -10 -39 -20 12 -11 107 13 142 24 36
33 42 23 17z m-1766 -18 c0 -7 -9 -16 -20 -19 -19 -5 -28 12 -13 26 11 12 33
7 33 -7z m1062 -84 c-8 -23 -24 4 -26 44 -2 22 0 43 3 49 7 13 29 -76 23 -93z
m-842 67 c0 -5 -4 -9 -10 -9 -5 0 -10 7 -10 16 0 8 5 12 10 9 6 -3 10 -10 10
-16z m1331 -16 c-12 -20 -14 -14 -5 12 4 9 9 14 11 11 3 -2 0 -13 -6 -23z
m2668 -17 c-9 -8 -10 -7 -5 7 3 10 7 24 7 30 1 7 3 4 6 -7 3 -10 -1 -23 -8
-30z m-3963 18 c-4 -10 1 -26 11 -37 17 -20 17 -20 0 -14 -10 4 -27 2 -38 -3
-11 -6 -24 -8 -29 -5 -14 8 12 46 27 40 8 -2 13 4 13 15 0 11 5 20 11 20 6 0
8 -7 5 -16z m644 6 c0 -5 -12 -10 -27 -9 l-28 1 25 8 c14 4 26 8 28 9 1 1 2
-3 2 -9z m490 -3 c0 -20 -22 -37 -47 -37 -13 0 -26 -7 -29 -15 -4 -8 -13 -15
-22 -15 -13 0 -12 3 3 20 10 11 15 23 10 28 -4 4 -10 1 -12 -5 -3 -7 -9 -13
-15 -13 -6 0 -8 7 -4 15 7 18 -5 20 -23 3 -11 -11 -13 -10 -9 2 3 10 22 17 54
20 27 3 59 6 72 7 12 2 22 -3 22 -10z m65 -29 c24 -61 29 -76 15 -55 -6 9 -15
15 -19 12 -10 -5 -42 71 -33 79 12 13 21 4 37 -36z m-1315 2 c-12 -16 -24 -30
-26 -30 -3 0 3 14 13 30 9 17 21 30 26 30 5 0 -1 -13 -13 -30z m1765 0 c10
-11 16 -20 13 -20 -3 0 -13 9 -23 20 -10 11 -16 20 -13 20 3 0 13 -9 23 -20z
m110 -36 c7 -3 23 -1 34 6 12 6 21 7 21 1 0 -10 -24 -21 -47 -21 -21 0 -42 30
-34 50 4 11 7 9 9 -8 2 -13 10 -26 17 -28z m-607 11 c-3 -3 -9 2 -12 12 -6 14
-5 15 5 6 7 -7 10 -15 7 -18z m2548 17 c6 -4 14 -17 18 -29 4 -13 12 -23 18
-23 5 0 7 7 4 15 -5 14 -4 14 16 0 39 -27 42 -16 4 14 -36 29 -36 30 -11 27
26 -3 90 -56 67 -56 -18 0 -14 -18 10 -42 16 -16 17 -20 5 -15 -19 7 -47 -1
-47 -14 0 -5 13 -6 29 -3 23 5 29 2 34 -15 3 -12 1 -21 -4 -21 -15 0 -10 -37
6 -50 13 -11 14 -10 9 5 -5 13 -4 16 4 11 18 -11 15 -26 -8 -46 -15 -13 -17
-20 -9 -25 8 -6 7 -10 -2 -16 -25 -16 -57 -10 -64 11 -4 11 -11 17 -17 14 -7
-5 -8 -2 -3 5 5 9 13 7 31 -10 13 -12 27 -19 31 -15 5 4 -3 17 -16 28 l-25 19
27 -6 c21 -6 27 -4 27 9 0 9 -7 16 -15 16 -18 0 -20 17 -4 22 7 2 9 13 5 26
-6 17 -13 21 -27 17 -26 -8 -36 20 -15 40 18 19 20 31 7 40 -12 7 -42 -35 -34
-48 3 -5 0 -8 -8 -5 -8 3 -16 15 -17 28 -4 23 -27 49 -46 50 -4 0 -5 -7 -2
-16 3 -8 2 -12 -4 -9 -6 3 -10 1 -10 -4 0 -6 -8 -11 -18 -11 -28 0 -59 -37
-44 -52 16 -16 15 -25 -3 -25 -11 0 -15 11 -15 38 0 28 4 37 13 33 7 -2 21 4
31 15 10 11 23 18 27 15 5 -3 9 8 9 24 0 39 12 50 36 34z m-3089 -24 c-3 -8
-6 -5 -6 6 -1 11 2 17 5 13 3 -3 4 -12 1 -19z m787 -13 c-18 -45 -18 -66 1
-59 9 4 15 0 15 -10 0 -19 -11 -21 -29 -3 -11 10 -13 9 -8 -5 3 -10 1 -20 -5
-24 -7 -5 -9 5 -3 32 7 42 31 104 39 104 3 0 -2 -16 -10 -35z m-1467 -17 c-3
-8 -6 -5 -6 6 -1 11 2 17 5 13 3 -3 4 -12 1 -19z m1233 -12 c-5 -5 -10 -13
-10 -17 0 -11 39 -18 42 -8 2 5 9 0 16 -11 11 -17 10 -21 0 -18 -8 2 -15 -1
-18 -7 -2 -5 9 -13 26 -16 19 -4 22 -7 9 -8 -11 -1 -27 -6 -35 -12 -13 -9 -12
-10 2 -5 17 5 48 -17 48 -33 0 -20 -98 -46 -100 -26 -1 5 13 13 29 18 44 11
38 19 -11 13 -27 -3 -49 0 -62 10 l-21 14 23 6 c27 8 29 24 2 24 -11 0 -20 5
-20 10 0 6 -9 19 -20 30 -11 11 -16 20 -11 20 6 0 17 -10 25 -21 10 -15 28
-23 58 -25 42 -4 42 -3 16 9 -21 10 -25 16 -17 24 8 8 5 14 -10 22 -17 10 -19
14 -9 25 10 10 19 11 36 3 15 -7 19 -14 12 -21z m390 -5 c0 -7 -37 -33 -63
-43 -16 -7 -16 -6 -2 16 8 12 12 25 9 29 -4 3 -4 13 0 22 5 14 8 14 31 -1 14
-9 25 -19 25 -23z m2353 14 c-8 -22 -22 -18 -16 5 3 11 9 17 14 15 4 -3 6 -12
2 -20z m-2803 -29 c0 -5 -7 -1 -15 10 -8 10 -14 24 -14 29 0 6 6 1 14 -9 8
-11 15 -24 15 -30z m201 1 c-8 -8 -11 -7 -11 4 0 9 3 19 7 23 4 4 9 2 11 -4 3
-7 -1 -17 -7 -23z m454 -8 c0 -24 -6 -34 -22 -40 -14 -5 -23 -5 -23 2 0 5 7
12 15 15 17 7 20 24 5 24 -6 0 -18 -16 -27 -35 -15 -32 -33 -47 -33 -27 0 18
42 74 63 82 12 5 22 9 22 9 0 1 0 -13 0 -30z m1951 2 c-12 -19 -24 -12 -19 10
4 13 9 17 15 11 6 -6 7 -15 4 -21z m124 19 c0 -5 -2 -10 -4 -10 -3 0 -8 5 -11
10 -3 6 -1 10 4 10 6 0 11 -4 11 -10z m-2194 -14 c1 -1 5 -11 8 -23 5 -16 3
-23 -6 -23 -10 0 -9 -3 2 -10 12 -9 7 -18 -30 -52 -44 -41 -40 -43 12 -5 55
41 141 18 187 -49 22 -31 51 -50 35 -21 -4 6 5 1 19 -12 15 -13 24 -27 22 -31
-3 -4 2 -33 10 -64 20 -75 20 -100 -1 -92 -8 3 -12 2 -9 -4 9 -15 -14 -50 -33
-50 -10 0 -29 9 -44 21 l-26 21 39 35 c51 46 54 85 4 47 -44 -33 -87 -35 -175
-9 -100 30 -126 32 -89 7 14 -9 34 -25 43 -34 10 -10 24 -18 32 -18 9 0 25 -5
37 -12 21 -11 21 -11 2 -19 -11 -4 -55 -8 -98 -8 -75 -1 -98 5 -141 39 -20 15
-20 15 0 -10 10 -14 57 -70 104 -123 69 -80 86 -94 93 -81 7 13 4 21 -11 33
-29 23 -10 45 55 64 44 13 51 13 46 1 -3 -8 -16 -14 -30 -14 -13 0 -22 -4 -18
-9 8 -14 67 -10 62 3 -5 13 48 48 57 38 14 -14 3 -42 -29 -76 -39 -42 -41 -46
-20 -46 8 0 15 5 15 10 0 6 7 10 15 10 8 0 15 3 15 8 0 4 12 15 26 25 l25 19
-28 -53 c-16 -31 -36 -54 -48 -56 -67 -14 -77 -14 -101 2 -25 16 -25 16 -14
-4 8 -16 8 -21 -2 -21 -8 0 -9 -3 -1 -11 18 -18 182 10 220 38 46 33 57 30 49
-15 -11 -71 18 -182 48 -182 7 0 56 85 56 98 0 6 5 23 12 39 6 15 10 33 9 40
-1 6 3 14 9 18 5 3 10 19 10 34 0 33 21 81 36 81 10 0 54 -89 54 -110 0 -15
41 -80 51 -80 4 0 6 7 3 15 -4 8 -2 21 3 28 4 6 8 21 8 32 0 11 3 22 7 25 4 3
8 29 9 57 1 28 10 61 19 73 14 19 19 20 43 9 27 -12 35 -33 18 -43 -5 -3 -7
-15 -4 -26 3 -12 0 -20 -7 -20 -7 0 -10 -7 -6 -16 4 -9 2 -22 -4 -29 -5 -6
-11 -20 -13 -31 -2 -10 -10 -32 -16 -49 -7 -16 -12 -39 -12 -50 1 -11 2 -37 3
-57 1 -34 4 -38 29 -38 15 0 31 -4 34 -10 4 -6 -40 -10 -123 -10 -106 0 -131
-3 -136 -15 -7 -20 -72 -20 -80 0 -3 8 -14 15 -25 15 -22 0 -19 -18 12 -91 11
-27 12 -40 4 -48 -8 -8 -7 -11 3 -11 8 0 37 -22 65 -49 62 -61 265 -213 285
-215 13 -1 15 25 18 169 1 93 7 174 12 179 15 15 13 -329 -1 -357 -7 -12 -27
-39 -45 -60 -19 -20 -34 -42 -34 -48 0 -6 -7 -8 -16 -5 -12 5 -15 2 -10 -9 6
-18 -53 22 -119 80 l-40 35 23 19 c16 14 22 30 22 59 0 33 -6 45 -32 68 -27
22 -34 24 -36 11 -2 -9 -20 -21 -40 -28 -61 -19 -64 -32 -4 -25 42 5 54 4 58
-9 3 -8 10 -12 15 -9 16 9 10 -33 -7 -47 -9 -7 -34 -12 -57 -10 -46 2 -70 17
-50 29 8 5 -23 43 -92 111 -58 58 -105 108 -105 113 0 4 9 8 20 8 11 0 20 5
20 10 0 6 -17 10 -38 10 l-39 0 -1 -156 c-1 -86 -4 -159 -7 -162 -3 -3 -5 83
-5 190 l0 196 -28 4 -28 4 -33 -128 c-19 -70 -38 -128 -42 -128 -5 0 -9 5 -9
11 0 5 -4 8 -8 5 -4 -2 -80 -6 -167 -8 -140 -2 -162 -5 -178 -21 -14 -14 -17
-27 -13 -48 3 -16 2 -29 -3 -29 -5 0 -12 20 -15 45 -4 25 -12 45 -18 45 -13 0
-26 16 -73 88 -19 28 -39 52 -44 52 -5 0 -14 -14 -20 -31 -9 -28 -9 -30 7 -25
13 5 12 2 -4 -12 -30 -25 -48 -87 -46 -154 2 -31 -2 -59 -8 -63 -6 -4 -10 5
-10 20 0 15 -4 24 -10 20 -5 -3 -10 -15 -10 -25 0 -10 -7 -25 -15 -34 -8 -8
-15 -20 -15 -26 0 -19 -72 -170 -81 -170 -11 0 -11 13 -1 25 13 15 59 172 72
243 6 35 14 71 17 80 5 11 -6 6 -29 -13 -19 -16 -43 -35 -54 -42 -18 -11 -18
-12 -1 -12 10 -1 15 -5 12 -11 -7 -12 -55 -9 -55 3 0 4 13 16 30 25 16 9 30
25 30 35 0 11 8 17 23 17 23 0 47 17 47 33 0 5 -13 7 -30 4 -22 -5 -30 -3 -30
8 0 8 5 15 11 15 5 0 7 4 4 10 -4 6 1 7 12 3 15 -5 16 -3 6 8 -7 7 -13 26 -13
41 0 22 5 28 23 28 43 0 51 14 53 94 2 61 -1 75 -15 79 -19 5 -48 54 -37 64 3
4 20 -8 37 -26 17 -19 34 -30 38 -25 5 5 13 54 20 109 7 58 18 106 26 114 8 8
39 16 69 19 31 2 56 7 56 10 0 3 -15 28 -33 56 -55 84 -78 166 -48 166 11 0
61 -57 55 -63 -6 -6 16 -108 28 -131 6 -11 13 -45 15 -77 5 -51 3 -59 -17 -71
-23 -13 -82 -123 -72 -132 3 -4 20 -6 39 -6 27 0 38 7 63 42 17 23 33 53 37
67 17 71 61 91 102 47 34 -36 22 -67 -39 -105 -27 -17 -50 -35 -50 -41 0 -5
22 -10 49 -10 45 0 49 2 62 32 19 46 68 98 91 98 18 0 20 -4 14 -39 -3 -22 -9
-47 -12 -56 -6 -14 1 -15 60 -9 47 5 70 3 81 -6 10 -8 15 -9 15 -2 0 6 7 9 15
6 18 -7 21 21 3 32 -19 12 -89 4 -114 -13 -26 -17 -51 -9 -35 11 6 7 8 16 4
19 -3 4 1 7 10 7 9 0 31 9 49 20 28 17 30 20 12 20 -16 0 -48 36 -124 140 -96
131 -105 141 -142 146 -34 6 -36 8 -21 20 16 12 16 13 -5 7 -12 -3 -28 0 -35
6 -12 9 -40 17 -69 20 -5 1 -8 6 -8 12 0 8 6 7 18 -2 15 -13 16 -12 4 3 -8 10
-22 20 -33 23 -25 8 -40 66 -28 110 11 37 33 55 71 55 13 0 29 5 34 10 12 12
47 2 39 -10 -7 -11 24 -22 37 -13 7 3 8 1 4 -5 -4 -7 6 -17 26 -25 47 -20 68
-44 68 -77 0 -24 -3 -27 -22 -22 -21 5 -22 4 -8 -13 14 -17 13 -18 -2 -12 -25
9 -12 -14 20 -37 l27 -20 -20 24 c-14 17 -16 22 -5 18 23 -8 27 94 5 112 -16
13 -16 15 2 22 12 6 8 6 -11 3 -25 -5 -28 -4 -17 8 8 10 37 16 86 19 55 2 79
8 92 21 17 17 16 17 -18 3 -37 -15 -61 -7 -55 18 2 6 1 8 -1 4 -3 -5 -13 -8
-24 -8 -20 0 -22 9 -10 50 5 17 2 29 -8 37 -13 11 -14 14 -2 22 7 5 10 14 7
20 -4 6 -2 11 3 11 6 0 11 -9 11 -21 0 -25 26 -55 33 -36 3 9 7 9 18 1 21 -16
49 -25 49 -14 0 5 -9 12 -20 15 -28 9 -15 25 21 25 31 0 36 -8 17 -30 -7 -7
-1 -5 14 6 36 25 35 34 -4 34 -31 1 -32 2 -14 15 15 11 60 12 72 1z m-351 -54
c-15 -16 -16 -15 -4 12 7 15 15 23 17 16 3 -7 -3 -19 -13 -28z m1690 28 c3 -5
1 -10 -4 -10 -6 0 -11 5 -11 10 0 6 2 10 4 10 3 0 8 -4 11 -10z m683 -25 c9
-17 20 -32 24 -35 12 -9 38 -78 38 -100 0 -16 -5 -20 -18 -16 -15 5 -18 0 -20
-29 -3 -44 13 -75 38 -75 27 0 27 -46 0 -62 -11 -7 -25 -29 -30 -48 -13 -47
-68 -85 -110 -76 -98 20 -90 14 -90 62 0 47 16 58 40 29 7 -9 15 -13 18 -11 5
5 -38 69 -50 74 -16 7 -7 33 14 41 17 6 28 2 47 -15 32 -30 39 -23 12 12 -26
33 -28 74 -4 74 22 0 96 -79 89 -96 -3 -7 0 -11 7 -8 21 8 13 143 -12 199 -12
26 -19 56 -16 66 3 9 1 20 -5 24 -5 3 -10 11 -10 16 0 19 21 4 38 -26z m-3701
9 c-3 -3 -12 -4 -19 -1 -8 3 -5 6 6 6 11 1 17 -2 13 -5z m3776 -8 c15 -12 16
-18 7 -35 -14 -27 -26 -26 -46 4 -26 39 1 60 39 31z m-213 -14 c0 -4 -9 -13
-20 -20 -22 -13 -27 -3 -8 16 14 14 28 16 28 4z m-480 -6 c0 -3 -4 -8 -10 -11
-5 -3 -10 -1 -10 4 0 6 5 11 10 11 6 0 10 -2 10 -4z m-1759 -29 c-10 -9 -11
-8 -5 6 3 10 9 15 12 12 3 -3 0 -11 -7 -18z m1726 1 c-3 -8 -6 -5 -6 6 -1 11
2 17 5 13 3 -3 4 -12 1 -19z m803 18 c0 -3 -4 -8 -10 -11 -5 -3 -10 -1 -10 4
0 6 5 11 10 11 6 0 10 -2 10 -4z m-3940 -21 c0 -8 -4 -15 -10 -15 -5 0 -25
-13 -43 -30 -49 -43 -50 -37 -3 15 43 48 56 54 56 30z m3888 -10 c-6 -14 -13
-23 -15 -21 -5 5 15 46 22 46 3 0 -1 -11 -7 -25z m-711 -7 c-3 -8 -6 -5 -6 6
-1 11 2 17 5 13 3 -3 4 -12 1 -19z m24 -11 c-8 -8 -11 -7 -11 4 0 20 13 34 18
19 3 -7 -1 -17 -7 -23z m534 23 c3 -5 1 -10 -4 -10 -6 0 -11 5 -11 10 0 6 2
10 4 10 3 0 8 -4 11 -10z m-1775 -22 c0 -6 -6 -5 -15 2 -8 7 -15 14 -15 16 0
2 7 1 15 -2 8 -4 15 -11 15 -16z m-526 6 c20 -8 21 -34 1 -34 -9 0 -12 6 -8
17 4 11 3 14 -5 9 -7 -4 -12 -2 -12 3 0 13 3 13 24 5z m1783 -66 c-3 -7 -5 -2
-5 12 0 14 2 19 5 13 2 -7 2 -19 0 -25z m30 -15 c-3 -10 -5 -2 -5 17 0 19 2
27 5 18 2 -10 2 -26 0 -35z m-70 0 c-3 -10 -5 -4 -5 12 0 17 2 24 5 18 2 -7 2
-21 0 -30z m-2927 7 c8 -15 8 -18 -3 -14 -8 3 -14 11 -14 19 0 20 4 19 17 -5z
m946 4 c-3 -9 -6 -25 -6 -36 0 -31 -9 -17 -14 20 -2 23 1 32 11 32 10 0 13 -6
9 -16z m-1238 -13 c3 -8 -1 -12 -9 -9 -7 2 -15 10 -17 17 -3 8 1 12 9 9 7 -2
15 -10 17 -17z m1102 5 c0 -2 3 -11 6 -20 3 -9 1 -16 -5 -16 -6 0 -11 6 -11
14 0 8 -6 17 -12 19 -8 3 -6 6 5 6 9 1 17 -1 17 -3z m169 -41 c0 -5 -4 -3 -9
5 -5 8 -9 22 -9 30 0 16 17 -16 18 -35z m-1361 0 c17 -37 15 -55 -6 -55 -24 0
-58 35 -43 45 16 10 13 23 -6 28 -10 3 -4 5 13 6 24 1 33 -5 42 -24z m342 21
c0 -2 -7 -7 -16 -10 -8 -3 -12 -2 -9 4 6 10 25 14 25 6z m-420 -10 c0 -9 -30
-14 -35 -6 -4 6 3 10 14 10 12 0 21 -2 21 -4z m180 -16 c6 -11 7 -20 2 -20
-10 0 -32 21 -32 32 0 16 19 8 30 -12z m69 -40 c17 -17 31 -36 31 -43 -1 -7
-6 -5 -14 6 -9 12 -16 14 -21 8 -12 -20 -27 -12 -20 10 5 14 3 19 -3 15 -6 -4
-10 2 -9 14 1 11 2 20 3 20 0 0 15 -14 33 -30z m56 -20 c3 -5 1 -10 -4 -10 -6
0 -11 5 -11 10 0 6 2 10 4 10 3 0 8 -4 11 -10z m-171 -26 c15 -14 20 -28 17
-46 0 -5 4 -8 9 -8 6 0 10 5 10 11 0 5 5 7 10 4 6 -3 10 0 10 8 0 8 6 17 14
20 11 4 14 -1 13 -20 -2 -26 -18 -35 -59 -34 -20 0 -24 -14 -8 -24 6 -4 7 -11
4 -17 -4 -6 -2 -8 4 -4 5 3 13 0 16 -6 4 -7 4 -3 2 9 -2 13 2 24 11 27 24 10
31 7 38 -13 4 -12 12 -18 21 -14 7 3 14 1 14 -5 0 -20 -29 -21 -35 -1 -4 11
-9 18 -12 16 -2 -3 0 -14 6 -25 7 -14 8 -29 1 -46 -5 -14 -6 -26 -1 -26 5 0
11 9 14 20 7 27 29 25 56 -4 19 -20 21 -28 12 -44 -6 -12 -11 -30 -11 -41 0
-26 -6 -26 -46 1 -31 21 -55 80 -39 96 3 3 -8 11 -24 18 -19 8 -37 28 -50 56
-11 24 -20 39 -21 34 0 -16 -40 27 -40 44 0 33 37 42 64 14z m1296 12 c0 -3
-4 -8 -10 -11 -5 -3 -10 -1 -10 4 0 6 5 11 10 11 6 0 10 -2 10 -4z m-1354 -77
c9 -10 12 -19 6 -19 -17 0 -42 42 -41 70 1 25 1 24 9 -4 5 -15 17 -37 26 -47z
m109 61 c-3 -5 -13 -10 -21 -10 -8 0 -14 5 -14 10 0 6 9 10 21 10 11 0 17 -4
14 -10z m2225 -15 c10 -12 10 -15 -2 -15 -8 0 -15 7 -15 15 0 8 1 15 2 15 2 0
8 -7 15 -15z m-50 -34 c-4 -21 -10 -43 -14 -49 -11 -19 2 -14 25 9 28 28 38
15 11 -14 -18 -19 -19 -24 -6 -41 25 -34 15 -38 -14 -5 l-28 32 -59 -62 c-60
-63 -92 -71 -61 -14 35 64 49 100 54 139 l4 42 48 0 47 0 -7 -37z m-2340 15
c0 -11 -19 -15 -25 -6 -3 5 1 10 9 10 9 0 16 -2 16 -4z m2836 -13 c16 -21 18
-69 4 -78 -5 -3 -10 -21 -10 -40 0 -41 19 -50 81 -36 24 5 45 8 48 6 2 -3 9
-1 15 4 6 5 26 12 45 16 90 19 -45 -59 -153 -89 -17 -4 -18 -11 -12 -58 4 -29
9 -78 12 -108 l5 -55 -20 24 c-12 13 -21 34 -21 47 0 13 -5 24 -11 24 -5 0 -9
8 -8 18 3 22 -23 78 -36 76 -5 0 -23 -6 -39 -13 -25 -10 -28 -15 -23 -45 4
-23 -1 -43 -15 -66 l-19 -33 -22 21 c-20 21 -21 26 -10 99 6 43 17 92 24 108
6 17 13 40 15 52 1 12 12 31 23 42 12 12 21 25 21 31 0 18 55 70 74 70 10 0
25 -8 32 -17z m834 -15 c0 -7 -22 -37 -49 -66 -37 -41 -50 -50 -54 -38 -4 9
-18 16 -32 16 -20 0 -25 -5 -25 -25 0 -16 -6 -25 -15 -25 -11 0 -15 -11 -15
-38 0 -27 -8 -47 -30 -72 l-29 -35 -1 47 c0 50 25 138 43 149 5 4 7 13 4 21
-4 12 14 19 81 32 48 9 93 23 102 31 18 18 20 19 20 3z m-2165 -37 c8 -16 24
-33 36 -36 11 -4 18 -9 16 -11 -11 -11 -54 20 -64 47 -14 37 -8 37 12 0z
m1805 -8 c-11 -17 -11 -17 -6 0 3 10 6 24 7 30 0 9 2 9 5 0 3 -7 0 -20 -6 -30z
m-1305 17 c-3 -5 -12 -10 -18 -10 -7 0 -6 4 3 10 19 12 23 12 15 0z m1192 -12
c-3 -8 -6 -5 -6 6 -1 11 2 17 5 13 3 -3 4 -12 1 -19z m-1318 -9 c-18 -11 -46
-12 -53 -1 -3 4 11 9 31 9 25 1 32 -2 22 -8z m1367 -24 c0 -18 -3 -32 -8 -29
-13 8 -8 64 6 64 1 0 1 -16 2 -35z m-29 3 c-3 -8 -6 -5 -6 6 -1 11 2 17 5 13
3 -3 4 -12 1 -19z m-1660 -44 c-3 -3 -12 -4 -19 -1 -8 3 -5 6 6 6 11 1 17 -2
13 -5z m2388 -4 c-3 -5 -12 -10 -18 -10 -7 0 -6 4 3 10 19 12 23 12 15 0z
m-1580 -39 c-3 -6 -11 -11 -17 -11 -6 0 -6 6 2 15 14 17 26 13 15 -4z m699 4
c-10 -8 -26 -14 -34 -14 -11 0 -10 3 4 14 11 8 27 15 35 15 11 0 10 -4 -5 -15z
m791 -5 c-3 -5 -12 -10 -18 -10 -7 0 -6 4 3 10 19 12 23 12 15 0z m-1540 -62
c-14 -11 -28 -18 -31 -15 -8 8 38 47 48 41 5 -3 -3 -15 -17 -26z m950 -187
c-6 -5 -75 -11 -155 -13 -128 -3 -151 -6 -193 -27 -26 -12 -59 -38 -73 -56
-47 -62 -54 -116 -54 -405 1 -322 2 -300 -10 -300 -5 0 -10 19 -10 41 0 28 -6
46 -17 55 -17 13 -17 13 0 14 9 0 17 6 17 14 0 8 -11 13 -29 12 -20 0 -43 13
-80 47 l-52 46 26 35 c15 19 32 37 38 39 12 4 74 -36 90 -57 4 -6 8 63 8 154
1 145 4 245 9 245 1 0 3 8 5 17 9 49 87 118 155 139 37 11 336 11 325 0z
m-1985 -101 c0 -5 -11 -10 -25 -10 -14 0 -25 5 -25 10 0 6 11 10 25 10 14 0
25 -4 25 -10z m13 -50 c-3 -11 -8 -20 -12 -21 -3 0 -16 -2 -28 -5 -16 -3 -23
1 -23 11 0 9 9 15 24 15 14 0 28 5 31 10 10 16 14 12 8 -10z m2158 3 c-16 -30
-227 -233 -242 -233 -8 0 43 56 112 125 121 121 150 145 130 108z m36 -120 c4
-10 1 -19 -8 -21 -26 -9 -210 -196 -230 -234 -15 -29 -19 -58 -19 -135 0 -114
-12 -143 -61 -143 -18 0 -28 4 -24 10 3 6 15 10 25 10 38 0 51 40 50 152 -1
56 -1 109 -1 117 1 15 239 261 253 261 5 0 12 -8 15 -17z m-343 -80 c4 -4 -8
-14 -26 -23 -37 -17 -57 -60 -57 -127 -1 -38 -8 -48 -99 -142 -53 -56 -105
-101 -115 -101 -15 0 -17 11 -17 75 0 43 4 75 10 75 6 0 10 -4 10 -8 0 -5 16
-16 37 -26 l36 -17 49 48 c61 59 77 89 76 139 0 21 4 51 10 67 14 34 67 59 86
40z m354 -358 c-3 -281 -3 -282 -61 -343 -54 -56 -117 -72 -275 -70 l-137 2
110 6 c93 5 116 10 151 30 22 14 66 40 96 58 31 18 61 39 67 45 26 33 41 166
43 392 1 127 3 210 6 185 2 -25 2 -162 0 -305z m-1690 310 c-3 -3 -9 2 -12 12
-6 14 -5 15 5 6 7 -7 10 -15 7 -18z m99 -50 c4 -13 -278 -8 -292 6 -6 6 43 9
139 7 88 -2 151 -7 153 -13z m-513 -71 c3 -8 2 -12 -4 -9 -6 3 -10 10 -10 16
0 14 7 11 14 -7z m371 6 c-3 -5 0 -7 9 -4 10 4 20 -5 31 -26 9 -18 15 -33 13
-34 -49 -36 -50 -37 -68 -3 -13 23 -14 34 -6 39 7 5 3 8 -9 8 -20 1 -20 1 -1
15 23 17 40 20 31 5z m165 -94 c0 -64 -4 -87 -16 -97 -12 -10 -50 -12 -150
-10 -183 4 -222 -11 -225 -86 -1 -25 -2 -23 -10 10 -10 43 10 87 40 87 9 1 80
1 158 0 85 -1 151 3 163 10 17 9 20 21 20 90 0 47 4 80 10 80 6 0 10 -35 10
-84z m-245 24 c-10 -11 -22 -20 -28 -20 -5 0 1 9 14 20 31 25 37 25 14 0z
m-280 0 c-3 -5 -12 -10 -18 -10 -7 0 -6 4 3 10 19 12 23 12 15 0z m425 -55 c0
-20 -5 -25 -27 -25 l-26 0 23 25 c13 14 25 25 27 25 2 0 3 -11 3 -25z m-499
-11 c-8 -34 -6 -388 2 -424 7 -33 7 -34 -8 -16 -12 17 -15 57 -15 244 0 175 3
223 13 219 6 -2 10 -13 8 -23z m730 -172 c-2 -122 1 -213 8 -237 11 -41 6 -59
-9 -35 -11 18 -13 470 -2 470 4 0 5 -89 3 -198z m-999 136 c-6 -6 -15 -8 -19
-4 -4 4 -1 11 7 16 19 12 27 3 12 -12z m2002 0 c-3 -12 -56 -69 -117 -127 -61
-58 -118 -119 -128 -135 -16 -27 -18 -27 -28 -9 -8 17 0 29 60 89 38 37 69 71
69 75 0 4 -10 9 -21 12 l-22 6 24 30 c13 16 28 30 33 30 5 1 14 8 20 17 9 12
17 13 38 5 21 -8 29 -6 44 10 23 25 37 24 28 -3z m-714 2 c14 -4 19 -8 13 -9
-7 -1 -22 -10 -33 -21 -19 -19 -20 -33 -20 -199 0 -216 2 -211 -103 -211 -48
0 -67 3 -57 10 8 5 36 8 64 8 40 -1 52 3 68 22 17 21 19 40 18 204 -1 100 -1
187 -1 194 1 13 14 14 51 2z m330 -202 c0 -106 -4 -198 -8 -204 -15 -23 -52
-34 -111 -34 -34 0 -61 4 -61 10 0 6 27 10 62 10 99 0 98 -2 98 222 0 119 4
188 10 188 6 0 10 -71 10 -192z m-1497 135 c-13 -2 -33 -2 -45 0 -13 2 -3 4
22 4 25 0 35 -2 23 -4z m1239 -216 c3 -104 1 -124 -9 -110 -14 19 -19 294 -5
307 8 9 11 -22 14 -197z m628 178 c0 -8 10 -21 23 -30 21 -17 21 -17 -18 -10
-62 11 -69 17 -45 43 22 23 40 22 40 -3z m155 -45 c-3 -5 -18 -9 -33 -9 l-27
1 30 8 c17 4 31 8 33 9 2 0 0 -3 -3 -9z m-1295 -26 c0 -10 -4 -12 -12 -7 -7 4
-76 10 -153 14 l-140 5 153 2 c132 2 152 0 152 -14z m-640 -14 c0 -5 -4 -10
-10 -10 -5 0 -10 5 -10 10 0 6 5 10 10 10 6 0 10 -4 10 -10z m-3 -63 c-5 -17
-37 -21 -37 -5 0 8 9 14 21 15 12 1 19 -3 16 -10z m663 -61 c0 -59 -4 -78 -21
-100 l-20 -26 -237 2 -237 2 222 5 c217 6 222 6 247 30 23 22 26 32 26 93 0
39 4 68 10 68 6 0 10 -31 10 -74z m-660 -6 c0 -5 -9 -10 -20 -10 -11 0 -20 5
-20 10 0 6 9 10 20 10 11 0 20 -4 20 -10z m0 -60 c0 -5 -9 -10 -20 -10 -11 0
-20 5 -20 10 0 6 9 10 20 10 11 0 20 -4 20 -10z m-53 -126 c-3 -3 -12 -4 -19
-1 -8 3 -5 6 6 6 11 1 17 -2 13 -5z"/>
<path d="M2020 4595 c0 -8 2 -15 4 -15 2 0 6 7 10 15 3 8 1 15 -4 15 -6 0 -10
-7 -10 -15z"/>
<path d="M1825 4464 l-17 -27 26 19 c26 19 33 34 17 34 -5 0 -16 -12 -26 -26z"/>
<path d="M1876 4474 c-4 -9 -5 -17 -4 -18 2 -1 16 -8 32 -16 15 -8 32 -24 37
-35 5 -12 8 -14 8 -5 0 19 -23 50 -36 50 -6 0 -10 7 -9 16 2 23 -20 29 -28 8z"/>
<path d="M1808 4408 c-10 -12 -18 -17 -18 -11 0 6 -9 9 -21 6 -12 -3 -18 -11
-15 -19 3 -8 2 -13 -2 -12 -16 3 -60 -22 -66 -38 -6 -16 -5 -17 11 -2 10 8 38
23 63 32 40 16 80 46 80 61 0 12 -16 3 -32 -17z"/>
<path d="M1365 4336 c9 -13 24 -27 33 -31 10 -4 5 6 -12 24 -36 37 -42 39 -21
7z"/>
<path d="M1658 4343 c-10 -2 -18 -9 -18 -14 0 -14 16 -11 30 6 7 8 11 14 9 14
-2 -1 -12 -3 -21 -6z"/>
<path d="M1736 4228 c6 -20 5 -21 -10 -9 -9 8 -19 11 -22 9 -7 -8 25 -38 41
-38 8 0 25 -11 39 -25 25 -25 95 -37 80 -14 -4 7 3 10 17 9 28 -3 89 20 89 33
0 16 -25 34 -40 29 -13 -5 -13 -3 -1 11 12 15 10 17 -20 17 -18 0 -53 -8 -77
-17 -42 -16 -45 -16 -57 0 -7 9 -20 17 -29 17 -13 0 -16 -5 -10 -22z m145 -28
c20 0 7 -18 -17 -24 -31 -8 -39 -3 -30 20 4 10 12 14 22 10 9 -3 20 -6 25 -6z"/>
<path d="M1621 4198 c-6 -16 -15 -28 -21 -28 -6 0 -30 -18 -53 -41 -23 -22
-34 -37 -23 -33 16 6 17 5 7 -15 -7 -12 -9 -31 -5 -43 6 -19 7 -19 16 -5 5 10
15 17 22 17 7 0 26 10 41 22 27 21 28 21 23 2 -5 -21 17 -50 27 -35 3 5 1 12
-5 16 -12 8 -13 52 -1 59 5 4 12 0 15 -6 3 -7 3 -1 0 14 -4 18 0 33 10 44 18
18 17 35 -2 42 -7 2 -12 -5 -12 -15 -1 -14 -3 -13 -15 7 l-13 25 -11 -27z"/>
<path d="M1803 4079 c9 -5 17 -14 17 -20 0 -16 -43 -28 -64 -17 -12 7 -22 6
-29 -1 -6 -6 -19 -11 -29 -11 -10 0 -18 -4 -18 -10 0 -5 -9 -10 -19 -10 -12 0
-23 -11 -30 -31 -16 -46 -13 -49 10 -9 11 19 18 27 15 18 -4 -14 1 -18 20 -18
19 0 25 4 20 15 -8 22 12 18 24 -5 6 -11 17 -20 24 -20 18 0 40 27 27 34 -5 3
-11 0 -14 -6 -2 -7 -8 -9 -13 -5 -14 13 19 27 47 21 19 -4 34 2 55 20 16 14
23 26 17 26 -7 0 -13 -4 -13 -10 0 -5 -4 -10 -10 -10 -5 0 -10 11 -10 24 0 13
-7 27 -16 30 -24 9 -31 7 -11 -5z"/>
<path d="M1860 4080 c0 -13 38 -32 58 -28 12 3 7 8 -17 21 -40 20 -41 20 -41
7z"/>
<path d="M1950 4022 c0 -13 -97 -42 -115 -35 -9 3 -23 -1 -33 -10 -9 -8 -37
-25 -62 -37 -25 -13 -39 -25 -32 -28 7 -2 29 4 50 14 20 10 43 19 50 20 8 1
28 9 45 17 45 21 87 29 87 18 0 -5 -5 -13 -10 -16 -6 -4 -8 -16 -4 -27 4 -15
2 -19 -7 -16 -8 3 -14 10 -14 16 0 5 -4 14 -9 19 -5 4 -5 -6 -2 -23 6 -27 3
-35 -21 -52 -15 -12 -23 -22 -17 -22 22 0 93 65 102 95 13 40 13 75 1 75 -5 0
-9 -4 -9 -8z"/>
<path d="M2062 3940 c-18 -29 -15 -38 4 -12 9 13 14 25 12 27 -2 2 -9 -5 -16
-15z"/>
<path d="M1857 3935 c3 -8 9 -12 14 -9 12 7 11 11 -5 17 -10 4 -13 1 -9 -8z"/>
<path d="M1600 3920 c-13 -8 -12 -10 3 -10 9 0 17 5 17 10 0 12 -1 12 -20 0z"/>
<path d="M1674 3909 c-3 -6 -2 -15 3 -20 5 -5 9 -1 10 11 2 22 -2 25 -13 9z"/>
<path d="M1830 3910 c-9 -6 -10 -10 -3 -10 6 0 15 5 18 10 8 12 4 12 -15 0z"/>
<path d="M1745 3830 c3 -5 8 -10 11 -10 2 0 4 5 4 10 0 6 -5 10 -11 10 -5 0
-7 -4 -4 -10z"/>
<path d="M1946 3738 c3 -5 10 -6 15 -3 13 9 11 12 -6 12 -8 0 -12 -4 -9 -9z"/>
<path d="M4085 4040 c3 -5 10 -10 16 -10 5 0 9 5 9 10 0 6 -7 10 -16 10 -8 0
-12 -4 -9 -10z"/>
<path d="M476 3297 c-11 -8 -17 -19 -15 -25 2 -6 16 0 32 14 29 25 15 34 -17
11z"/>
<path d="M621 3262 c-43 -43 -41 -63 7 -60 34 3 37 6 40 37 5 51 -12 59 -47
23z"/>
<path d="M431 3244 c0 -11 3 -14 6 -6 3 7 2 16 -1 19 -3 4 -6 -2 -5 -13z"/>
<path d="M655 3170 c4 -6 11 -8 16 -5 14 9 11 15 -7 15 -8 0 -12 -5 -9 -10z"/>
<path d="M3310 4001 c0 -5 7 -12 16 -15 24 -9 28 -7 14 9 -14 17 -30 20 -30 6z"/>
<path d="M3471 3915 c13 -13 26 -20 28 -14 1 6 8 4 15 -4 6 -8 21 -18 34 -22
21 -6 22 -5 11 13 -7 12 -15 20 -18 20 -15 -3 -61 15 -61 23 0 5 -7 9 -16 9
-13 0 -11 -5 7 -25z"/>
<path d="M3097 3906 c-3 -8 -3 -16 0 -19 9 -10 33 5 33 19 0 18 -26 18 -33 0z"/>
<path d="M3508 3762 c-23 -4 -11 -32 13 -32 11 0 24 -11 31 -25 6 -14 15 -25
20 -25 5 0 3 10 -3 23 -22 41 -44 63 -61 59z"/>
<path d="M3165 3740 c-4 -6 -3 -16 3 -22 6 -6 12 -6 17 2 4 6 3 16 -3 22 -6 6
-12 6 -17 -2z"/>
<path d="M3470 3736 c0 -2 8 -10 18 -17 15 -13 16 -12 3 4 -13 16 -21 21 -21
13z"/>
<path d="M3630 3480 c-7 -17 -17 -30 -23 -30 -7 0 -7 4 1 12 26 26 12 33 -60
30 -77 -3 -118 -16 -118 -39 0 -15 5 -16 28 -4 9 4 40 11 67 14 35 4 43 3 28
-3 -13 -5 -23 -13 -23 -19 0 -5 -15 -16 -34 -25 -26 -12 -33 -21 -29 -36 7
-27 50 -26 81 3 13 12 35 22 49 22 20 0 27 5 28 23 1 13 6 27 12 30 14 10 23
41 14 47 -5 2 -14 -9 -21 -25z m-45 -40 c-3 -5 -16 -10 -28 -9 -20 1 -20 2 3
9 14 4 26 8 28 9 2 1 0 -3 -3 -9z m-66 -61 c-22 -14 -33 -10 -19 6 7 8 17 12
22 9 6 -4 5 -10 -3 -15z"/>
<path d="M3545 3360 c-3 -6 1 -7 9 -4 18 7 21 14 7 14 -6 0 -13 -4 -16 -10z"/>
<path d="M4496 3564 c-9 -22 3 -32 14 -14 12 19 12 30 1 30 -5 0 -12 -7 -15
-16z"/>
<path d="M4546 3564 c-9 -22 3 -32 14 -14 12 19 12 30 1 30 -5 0 -12 -7 -15
-16z"/>
<path d="M1720 3570 c0 -5 5 -10 11 -10 5 0 7 5 4 10 -3 6 -8 10 -11 10 -2 0
-4 -4 -4 -10z"/>
<path d="M2255 3520 c3 -5 8 -10 11 -10 2 0 4 5 4 10 0 6 -5 10 -11 10 -5 0
-7 -4 -4 -10z"/>
<path d="M2225 3410 c-3 -5 -1 -10 4 -10 6 0 11 5 11 10 0 6 -2 10 -4 10 -3 0
-8 -4 -11 -10z"/>
<path d="M2095 3392 c-22 -4 -55 -30 -55 -44 0 -13 38 -9 78 9 20 9 40 15 45
15 4 -1 7 2 7 7 0 10 -46 18 -75 13z"/>
<path d="M1775 3280 c-3 -5 -1 -10 4 -10 6 0 11 5 11 10 0 6 -2 10 -4 10 -3 0
-8 -4 -11 -10z"/>
<path d="M2221 3224 c0 -11 3 -14 6 -6 3 7 2 16 -1 19 -3 4 -6 -2 -5 -13z"/>
<path d="M2380 3060 c0 -6 7 -13 15 -16 10 -4 12 -10 7 -18 -5 -6 -12 -27 -16
-46 -4 -25 -3 -31 4 -20 5 8 10 24 10 36 0 11 5 25 10 30 14 14 2 44 -16 44
-8 0 -14 -5 -14 -10z"/>
<path d="M3094 2951 c3 -5 18 -12 33 -16 16 -3 43 -16 61 -27 43 -26 186 -193
246 -288 26 -41 70 -106 97 -145 28 -38 68 -98 91 -133 22 -35 42 -61 45 -59
4 5 -121 199 -204 316 -29 41 -53 78 -53 84 0 5 -17 28 -37 51 -21 23 -65 72
-98 110 -41 47 -76 75 -113 92 -55 25 -77 30 -68 15z"/>
<path d="M3234 2940 c48 -24 76 -49 76 -66 0 -20 21 -28 32 -13 8 11 9 10 4
-3 -3 -12 7 -27 33 -48 43 -33 61 -39 40 -13 -13 15 -11 16 24 10 72 -11 31
25 -93 83 -36 17 -71 38 -77 47 -7 9 -27 18 -45 19 l-33 3 39 -19z"/>
<path d="M2035 2920 c-39 -15 -48 -36 -30 -64 20 -30 30 -35 16 -7 -15 27 9
53 47 55 18 1 32 6 32 14 0 13 -34 15 -65 2z"/>
<path d="M1610 2870 c0 -5 5 -10 10 -10 6 0 10 5 10 10 0 6 -4 10 -10 10 -5 0
-10 -4 -10 -10z"/>
<path d="M1880 2871 c0 -5 3 -11 8 -13 7 -3 50 -60 65 -85 5 -7 -7 -22 -30
-37 -28 -19 -33 -26 -18 -26 10 0 29 9 41 21 l22 21 18 -29 c61 -97 106 -131
133 -100 14 18 2 30 -15 16 -25 -21 -50 2 -129 121 -74 110 -95 135 -95 111z"/>
<path d="M2142 2860 c0 -14 2 -19 5 -12 2 6 2 18 0 25 -3 6 -5 1 -5 -13z"/>
<path d="M3520 2870 c0 -19 47 -40 81 -36 38 4 41 18 6 27 -56 15 -87 18 -87
9z"/>
<path d="M2085 2785 c7 -63 11 -80 24 -101 11 -17 12 -17 7 -1 -3 10 1 25 9
33 9 9 14 31 13 52 l-1 37 -4 -37 c-2 -21 -8 -38 -12 -38 -8 0 -25 36 -35 75
-3 11 -3 2 -1 -20z"/>
<path d="M3581 2719 c41 -28 93 -69 116 -92 24 -22 45 -38 48 -36 13 14 -201
179 -232 179 -3 0 27 -23 68 -51z"/>
<path d="M2676 2743 c-6 -14 -5 -15 5 -6 7 7 10 15 7 18 -3 3 -9 -2 -12 -12z"/>
<path d="M3465 2730 c10 -11 20 -20 23 -20 3 0 -3 9 -13 20 -10 11 -20 20 -23
20 -3 0 3 -9 13 -20z"/>
<path d="M3531 2624 c13 -22 32 -52 42 -65 17 -24 17 -24 2 8 -14 29 -14 32 0
27 20 -8 141 -86 177 -113 14 -12 30 -21 34 -21 14 0 -31 42 -61 57 -42 22
-165 102 -194 127 l-24 21 24 -41z"/>
<path d="M2890 2551 c0 -35 24 -133 39 -158 16 -28 13 1 -8 82 -10 39 -16 75
-14 82 2 6 -1 14 -6 18 -7 4 -11 -5 -11 -24z"/>
<path d="M2041 2523 c-1 -21 7 -41 25 -60 l25 -28 -18 35 c-10 19 -21 46 -24
60 -6 23 -7 22 -8 -7z"/>
<path d="M3609 2503 c23 -35 41 -50 41 -35 0 4 -14 21 -32 38 l-31 29 22 -32z"/>
<path d="M3670 2422 c6 -13 14 -21 18 -18 3 4 -2 14 -12 24 -18 16 -18 16 -6
-6z"/>
<path d="M2941 2363 c-2 -21 40 -123 50 -123 5 0 9 3 8 8 -1 16 -58 126 -58
115z"/>
<path d="M3732 2308 c8 -12 21 -24 29 -27 9 -3 8 1 -4 13 -9 10 -17 22 -17 27
0 5 -5 9 -11 9 -7 0 -6 -8 3 -22z"/>
<path d="M4060 2030 c0 -5 5 -10 11 -10 5 0 7 5 4 10 -3 6 -8 10 -11 10 -2 0
-4 -4 -4 -10z"/>
<path d="M3870 1995 c0 -5 5 -17 10 -25 5 -8 10 -10 10 -5 0 6 -5 17 -10 25
-5 8 -10 11 -10 5z"/>
<path d="M3270 1945 c0 -10 10 -15 33 -15 44 0 67 15 35 23 -40 11 -68 8 -68
-8z"/>
<path d="M3170 1920 c-9 -6 -10 -10 -3 -10 6 0 15 5 18 10 8 12 4 12 -15 0z"/>
<path d="M3513 1813 c9 -2 23 -2 30 0 6 3 -1 5 -18 5 -16 0 -22 -2 -12 -5z"/>
<path d="M3975 3520 c3 -5 8 -10 11 -10 2 0 4 5 4 10 0 6 -5 10 -11 10 -5 0
-7 -4 -4 -10z"/>
<path d="M3960 3501 c0 -5 5 -13 10 -16 6 -3 10 -2 10 4 0 5 -4 13 -10 16 -5
3 -10 2 -10 -4z"/>
<path d="M191 2403 c-2 -20 16 -24 30 -5 13 15 12 16 -3 4 -13 -10 -17 -10
-21 0 -4 9 -6 9 -6 1z"/>
<path d="M641 2244 c0 -11 3 -14 6 -6 3 7 2 16 -1 19 -3 4 -6 -2 -5 -13z"/>
<path d="M283 2207 c-4 -6 -1 -7 7 -2 10 6 12 4 7 -8 -9 -23 0 -22 12 1 8 14
6 19 -5 19 -8 0 -18 -5 -21 -10z"/>
<path d="M385 2179 c-4 -6 -5 -12 -2 -15 2 -3 7 2 10 11 7 17 1 20 -8 4z"/>
<path d="M1957 2073 c-20 -19 0 -113 24 -113 6 0 24 -9 40 -20 15 -12 44 -22
63 -23 l34 -3 -16 25 c-9 14 -21 29 -27 33 -10 7 -8 9 15 12 20 2 4 20 -19 21
-13 0 -31 11 -41 23 -15 18 -19 19 -24 6 -10 -27 -7 -36 30 -70 19 -19 31 -34
26 -34 -5 0 -17 9 -27 20 -10 11 -24 20 -32 20 -9 0 -13 14 -13 44 0 41 -19
74 -33 59z"/>
<path d="M2677 2048 c8 -44 13 -48 13 -10 0 17 -4 34 -10 37 -6 4 -7 -6 -3
-27z"/>
<path d="M2130 1976 c0 -2 7 -7 16 -10 8 -3 12 -2 9 4 -6 10 -25 14 -25 6z"/>
<path d="M1910 1915 c0 -5 5 -17 10 -25 5 -8 10 -10 10 -5 0 6 -5 17 -10 25
-5 8 -10 11 -10 5z"/>
<path d="M1940 1844 c0 -5 7 -19 15 -30 8 -10 15 -14 15 -8 0 5 -7 19 -15 30
-8 10 -15 14 -15 8z"/>
<path d="M2912 1608 c-7 -29 -15 -74 -18 -100 l-7 -48 57 0 56 0 -26 57 c-14
32 -28 77 -31 100 -3 24 -9 43 -13 43 -4 0 -12 -24 -18 -52z"/>
<path d="M2599 1585 c-16 -9 -34 -34 -48 -67 -12 -29 -26 -61 -32 -71 -13 -24
-3 -35 19 -21 21 14 50 66 45 81 -3 6 7 30 21 52 15 23 25 41 24 41 -2 -1 -15
-7 -29 -15z m-39 -115 c0 -5 -4 -10 -10 -10 -5 0 -10 5 -10 10 0 6 5 10 10 10
6 0 10 -4 10 -10z"/>
<path d="M2663 1504 c-10 -21 -9 -24 8 -24 20 0 24 16 11 37 -5 8 -11 3 -19
-13z"/>
<path d="M2423 1462 c-12 -2 -20 -9 -17 -15 3 -9 -14 -11 -61 -9 -72 4 -71 5
-54 -64 10 -37 15 -44 35 -44 32 0 30 -14 -2 -29 -25 -11 -26 -15 -20 -58 3
-25 6 -52 6 -59 0 -10 13 -14 40 -14 51 0 60 17 60 119 0 48 4 83 11 87 8 5
10 -7 7 -40 -3 -25 -2 -46 2 -46 9 0 30 101 30 141 0 32 -6 37 -37 31z m-18
-62 c8 -12 -71 -12 -100 0 -14 6 -4 9 37 9 31 1 60 -3 63 -9z"/>
<path d="M1920 1420 c0 -17 3 -19 19 -10 32 16 34 30 7 30 -19 0 -26 -5 -26
-20z"/>
<path d="M1975 1385 l-60 -54 34 -35 c19 -20 49 -40 67 -46 32 -11 47 -30 48
-60 1 -8 8 -16 16 -18 12 -2 18 16 28 80 8 46 19 95 27 111 13 26 12 27 -11
27 -13 0 -24 5 -24 11 0 7 12 10 30 7 26 -4 40 6 40 28 0 2 -30 4 -67 4 -68
-1 -68 -1 -128 -55z m17 -57 c-7 -7 -12 -8 -12 -2 0 6 3 14 7 17 3 4 9 5 12 2
2 -3 -1 -11 -7 -17z"/>
<path d="M2211 1410 c-16 -37 -9 -60 20 -60 15 0 19 4 15 16 -3 9 -6 29 -6 45
0 37 -12 37 -29 -1z"/>
<path d="M2637 1433 c-14 -13 -6 -23 17 -23 14 0 28 -4 31 -10 4 -6 -5 -10
-19 -10 -16 0 -26 -6 -26 -15 0 -11 12 -15 44 -15 l45 0 -15 28 c-7 15 -14 33
-14 40 0 12 -51 17 -63 5z"/>
<path d="M2710 1312 c0 -5 7 -13 16 -16 10 -4 14 -1 12 6 -5 15 -28 23 -28 10z"/>
<path d="M2200 1281 c-25 -7 -26 -10 -22 -81 2 -30 2 -30 62 -30 l60 0 -6 28
c-4 15 -11 30 -17 33 -5 4 -6 12 -3 18 9 13 -17 41 -36 40 -7 -1 -24 -4 -38
-8z m42 -73 c-5 -21 -13 -23 -30 -6 -19 19 -14 28 12 26 17 -2 22 -7 18 -20z"/>
<path d="M1780 1247 c0 -9 -7 -17 -15 -17 -19 0 -19 -11 -2 -35 13 -16 14 -15
20 20 4 22 4 41 2 44 -3 2 -5 -3 -5 -12z"/>
<path d="M2837 1059 c7 -7 15 -10 18 -7 3 3 -2 9 -12 12 -14 6 -15 5 -6 -5z"/>
<path d="M4450 1891 c0 -11 -3 -28 -6 -38 -3 -10 3 -4 14 12 19 30 20 45 1 45
-5 0 -9 -9 -9 -19z"/>
<path d="M4370 1825 c0 -8 5 -15 10 -15 6 0 10 7 10 15 0 8 -4 15 -10 15 -5 0
-10 -7 -10 -15z"/>
<path d="M562 1930 c0 -14 2 -19 5 -12 2 6 2 18 0 25 -3 6 -5 1 -5 -13z"/>
<path d="M3270 1808 c-1 -5 -3 -11 -4 -15 -1 -5 -5 -14 -9 -20 -5 -7 -5 -13
-1 -13 3 0 1 -7 -6 -15 -10 -12 -10 -19 -2 -27 20 -20 34 5 29 53 -2 24 -5 41
-7 37z"/>
<path d="M3205 860 c-17 -7 -15 -9 13 -9 17 -1 32 4 32 9 0 12 -17 12 -45 0z"/>
<path d="M3261 854 c0 -11 3 -14 6 -6 3 7 2 16 -1 19 -3 4 -6 -2 -5 -13z"/>
<path d="M3360 811 c0 -12 28 -22 35 -12 3 5 -2 12 -11 15 -21 8 -24 8 -24 -3z"/>
<path d="M1087 2454 c-4 -16 -9 -40 -12 -54 -6 -25 -6 -24 10 3 8 15 23 27 31
27 19 0 56 -19 66 -34 5 -7 8 -5 8 6 0 18 -36 48 -59 48 -7 0 -19 7 -26 16
-10 15 -13 13 -18 -12z"/>
<path d="M1344 2395 c0 -14 4 -25 8 -25 11 0 28 36 21 44 -15 14 -31 4 -29
-19z"/>
<path d="M1136 2360 c2 -45 5 -48 14 -16 9 29 6 46 -8 46 -4 0 -6 -13 -6 -30z"/>
<path d="M1603 2221 c-8 -13 -19 -18 -30 -14 -9 4 -14 2 -11 -3 3 -5 8 -17 12
-28 6 -17 8 -16 27 8 11 14 19 33 17 41 -2 13 -5 12 -15 -4z"/>
<path d="M1293 2207 c16 -11 16 -14 3 -32 -14 -20 -15 -20 -24 5 -9 21 -11 22
-17 8 -4 -9 -4 -22 0 -28 3 -5 0 -10 -7 -11 -9 0 -8 -2 2 -7 13 -6 13 -11 -3
-42 l-19 -35 6 55 5 55 -29 -35 c-22 -27 -27 -41 -23 -67 4 -21 2 -33 -6 -33
-6 0 -11 5 -11 11 0 5 -5 7 -10 4 -6 -4 -17 -2 -25 5 -11 9 -16 7 -24 -9 -6
-11 -11 -26 -11 -34 0 -8 -9 -26 -20 -40 -11 -14 -20 -35 -20 -47 0 -12 -20
-72 -45 -133 -24 -62 -47 -132 -50 -157 -5 -36 1 -25 28 50 57 156 82 210 105
226 13 9 22 11 22 5 0 -6 10 -11 23 -11 16 0 18 3 8 9 -9 6 -5 9 13 9 28 0 35
-12 11 -22 -22 -8 -55 -67 -55 -96 1 -14 7 -36 15 -50 l14 -25 1 25 c0 27 25
70 40 70 11 0 0 -78 -16 -109 -15 -28 -10 -41 15 -41 14 0 17 -6 13 -27 -2
-16 -1 -25 3 -21 5 5 13 -2 19 -14 6 -11 21 -25 34 -29 14 -5 21 -5 17 0 -3 5
-1 12 4 15 10 7 26 -48 17 -62 -9 -15 13 -37 39 -37 14 -1 26 3 26 7 1 4 2 12
3 17 0 5 4 13 9 17 4 4 7 17 7 29 0 11 5 26 11 32 8 8 8 17 0 31 -15 28 -14
37 4 22 25 -21 34 -1 33 79 -1 82 5 106 27 97 8 -3 16 0 18 7 2 7 3 3 1 -8 -2
-11 1 -26 5 -34 13 -21 23 33 11 63 -6 17 -6 35 0 51 8 20 6 27 -11 36 -16 8
-18 13 -8 25 9 11 9 17 -1 29 -10 12 -10 21 0 45 7 17 10 33 7 37 -4 3 -9 -2
-13 -11 -8 -21 -24 -21 -24 1 0 15 -2 14 -20 -2 -25 -23 -46 -14 -53 22 -6 33
-3 38 18 30 8 -4 15 -18 15 -33 0 -26 1 -26 18 -11 10 10 21 15 24 12 2 -3 10
6 16 20 10 22 9 25 -8 25 -11 0 -38 6 -60 12 -31 10 -39 17 -34 30 3 10 1 18
-5 18 -6 0 -11 -6 -12 -12 0 -7 -4 -3 -9 10 -6 13 -18 22 -32 22 -20 0 -20 -1
-5 -13z m44 -77 c2 -20 -8 -26 -20 -13 -4 3 -2 12 4 20 15 17 14 17 16 -7z
m29 -99 c-3 -5 2 -12 11 -15 15 -6 15 -8 3 -16 -11 -7 -12 -10 -2 -10 7 0 10
-5 6 -11 -3 -6 -14 2 -25 20 -23 38 -23 41 -3 41 8 0 13 -4 10 -9z m-85 -48
c13 -16 12 -17 -3 -4 -10 7 -18 15 -18 17 0 8 8 3 21 -13z m-144 1 c-3 -3 -12
-4 -19 -1 -8 3 -5 6 6 6 11 1 17 -2 13 -5z m193 -4 c0 -5 -2 -10 -4 -10 -3 0
-8 5 -11 10 -3 6 -1 10 4 10 6 0 11 -4 11 -10z m-85 -40 c3 -5 1 -10 -4 -10
-6 0 -11 5 -11 10 0 6 2 10 4 10 3 0 8 -4 11 -10z m55 -181 c0 -6 -4 -7 -10
-4 -5 3 -10 11 -10 16 0 6 5 7 10 4 6 -3 10 -11 10 -16z m-27 -39 c-3 -11 -7
-20 -9 -20 -2 0 -4 9 -4 20 0 11 4 20 9 20 5 0 7 -9 4 -20z m24 -92 c-3 -8 -6
-5 -6 6 -1 11 2 17 5 13 3 -3 4 -12 1 -19z m-37 -18 c0 -5 -2 -10 -4 -10 -3 0
-8 5 -11 10 -3 6 -1 10 4 10 6 0 11 -4 11 -10z m92 -29 c2 -17 1 -28 -4 -25
-8 5 -12 54 -4 54 2 0 6 -13 8 -29z"/>
<path d="M1624 2164 c19 -18 20 -28 5 -56 -6 -11 -8 -22 -5 -25 3 -3 11 7 18
23 6 16 21 39 32 52 11 12 16 22 11 22 -4 0 -14 -8 -21 -17 -13 -17 -15 -17
-25 0 -5 9 -15 17 -20 17 -6 0 -3 -7 5 -16z"/>
<path d="M1576 2072 c-3 -5 1 -9 9 -9 8 0 12 4 9 9 -3 4 -7 8 -9 8 -2 0 -6 -4
-9 -8z"/>
<path d="M1760 1975 c-8 -9 -8 -15 -2 -15 12 0 26 19 19 26 -2 2 -10 -2 -17
-11z"/>
<path d="M820 1932 c0 -11 22 -32 32 -32 5 0 4 9 -2 20 -11 20 -30 28 -30 12z"/>
<path d="M1630 1566 c0 -2 8 -10 18 -17 15 -13 16 -12 3 4 -13 16 -21 21 -21
13z"/>
<path d="M1132 1408 c-8 -8 -12 -49 -12 -120 0 -147 1 -148 153 -148 112 0
147 -9 126 -34 -5 -6 -70 -134 -144 -284 l-135 -273 2 -77 2 -77 3 63 4 63 27
-19 c50 -36 227 -139 250 -146 13 -4 29 -3 36 3 7 6 61 12 122 13 l109 3 1 74
c1 64 -1 74 -17 78 -26 7 -24 23 2 23 19 0 21 4 14 37 -10 57 -25 63 -145 63
-78 0 -111 4 -126 15 -17 13 -17 14 -1 15 10 0 17 8 17 18 0 23 48 124 64 134
6 4 8 8 3 8 -4 0 -1 13 8 30 8 16 16 33 16 37 0 5 6 15 13 23 7 8 37 64 65
124 39 80 50 111 41 116 -18 11 -4 56 24 81 21 18 24 29 22 85 -1 46 -5 68
-16 74 -23 15 -513 13 -528 -2z m431 -798 c12 0 17 -4 12 -9 -6 -4 -27 -6 -49
-3 -26 3 -34 7 -25 13 8 5 20 7 27 4 8 -3 23 -5 35 -5z m-93 -210 c0 -5 -7 -7
-15 -4 -8 4 -15 8 -15 10 0 2 7 4 15 4 8 0 15 -4 15 -10z"/>
<path d="M1651 1221 c-14 -24 -14 -31 -1 -31 14 0 32 38 21 45 -6 3 -15 -3
-20 -14z"/>
<path d="M1340 340 c0 -5 -49 -11 -112 -13 l-113 -3 118 -2 c98 -2 117 0 117
13 0 8 -2 15 -5 15 -3 0 -5 -4 -5 -10z"/>
</g>
</svg>
